<svg xmlns="http://www.w3.org/2000/svg"  viewBox="0 0 40 40" width="40px" height="40px"><polygon fill="#839cb2" points="25.489,10.501 37.489,3.501 36.489,17.501 32.489,19.501 25.489,13.501"/><polygon fill="#839cb2" points="14.489,10.501 2.489,3.501 3.489,17.501 7.489,19.501 14.489,13.501"/><path fill="#66798f" d="M32.416,20.096l-7.427-6.366v-3.517l13.066-7.622L36.968,17.82L32.416,20.096z M25.989,13.271 l6.573,5.634l3.448-1.724L36.923,4.41l-10.934,6.378V13.271z"/><path fill="#66798f" d="M7.562,20.096L3.01,17.82L1.923,2.591l13.066,7.622v3.517L7.562,20.096z M3.968,17.181l3.448,1.724 l6.573-5.634v-2.483L3.055,4.41L3.968,17.181z"/><ellipse cx="19.936" cy="24.001" fill="#839cb2" rx="14.857" ry="12"/><path fill="#66798f" d="M19.936,36.501c-8.468,0-15.357-5.607-15.357-12.5c0-6.841,6.41-12,14.91-12 c8.862,0,15.804,5.271,15.804,12C35.293,30.893,28.404,36.501,19.936,36.501z M19.489,13.001c-7.93,0-13.91,4.729-13.91,11 c0,6.341,6.44,11.5,14.357,11.5c7.916,0,14.356-5.159,14.356-11.5C34.293,17.935,27.652,13.001,19.489,13.001z"/><path fill="#fff" d="M19.989,35.501c-6.084,0-10.5-2.733-10.5-6.5c0-2.394,1.919-5.123,4.498-6.441l6.002,3l6.002-3 c2.579,1.317,4.498,4.048,4.498,6.441C30.489,32.767,26.073,35.501,19.989,35.501z"/><path fill="#66798f" d="M13.994,23.121l5.548,2.774l0.447,0.224l0.447-0.224l5.548-2.774 c2.311,1.275,4.005,3.729,4.005,5.879c0,3.477-4.206,6-10,6s-10-2.523-10-6C9.989,26.851,11.683,24.397,13.994,23.121 M25.989,22.001l-6,3l-6-3c-2.915,1.381-5,4.368-5,7c0,4.238,4.842,7,11,7c6.171,0,11-2.762,11-7 C30.989,26.38,28.904,23.382,25.989,22.001L25.989,22.001z"/><path fill="#fff" d="M19.936,22.525c-2.056,0-3.728-1.27-3.728-2.829s1.672-2.828,3.728-2.828 c2.055,0,3.727,1.269,3.727,2.828S21.991,22.525,19.936,22.525z"/><path fill="#66798f" d="M19.936,17.368c1.749,0,3.227,1.066,3.227,2.329s-1.478,2.329-3.227,2.329 s-3.227-1.066-3.227-2.329S18.186,17.368,19.936,17.368 M19.936,16.368c-2.335,0-4.227,1.49-4.227,3.329 c0,1.838,1.893,3.329,4.227,3.329s4.227-1.49,4.227-3.329C24.163,17.858,22.271,16.368,19.936,16.368L19.936,16.368z"/><ellipse cx="19.981" cy="31" fill="#fff" rx=".514" ry=".458"/><path fill="#66798f" d="M19.982,32.001c-0.547,0-0.993-0.449-0.993-1c0-0.551,0.445-1,0.993-1s0.992,0.449,0.992,1 C20.973,31.552,20.529,32.001,19.982,32.001z"/><path fill="#fff" d="M21.947,32.364c-0.421,0.525-1.164,0.874-2.011,0.874c-0.82,0-1.543-0.327-1.97-0.825"/><path fill="#66798f" d="M19.936,33.738c-0.935,0-1.812-0.373-2.349-0.998l0.758-0.652c0.35,0.407,0.944,0.65,1.591,0.65 c0.66,0,1.281-0.263,1.62-0.687l0.781,0.625C21.804,33.341,20.907,33.738,19.936,33.738z"/><ellipse cx="18.329" cy="19.776" fill="#66798f" rx=".494" ry=".601"/><ellipse cx="21.8" cy="19.776" fill="#66798f" rx=".494" ry=".601"/><ellipse cx="14.489" cy="29.001" fill="#66798f" rx="1.5" ry="2"/><ellipse cx="25.489" cy="29.001" fill="#66798f" rx="1.5" ry="2"/><path fill="#fff" d="M15.977,27.506c0,0-1.488-0.005-3.488-1.005"/><path fill="#66798f" d="M15.974,28.007c-0.065,0-1.628-0.019-3.709-1.059l0.447-0.895c1.856,0.928,3.253,0.953,3.268,0.953 L15.974,28.007z"/><path fill="#fff" d="M23.996,27.506c0,0,1.673-0.005,3.673-1.005"/><path fill="#66798f" d="M23.999,28.007l-0.005-1c0.016,0,1.593-0.023,3.452-0.953l0.447,0.895 C25.812,27.988,24.072,28.007,23.999,28.007z"/><circle cx="1.064" cy="2.463" r=".925" fill="#839cb2"/><path fill="#66798f" d="M1.489,2.001c0.276,0,0.5,0.224,0.5,0.5s-0.224,0.5-0.5,0.5s-0.5-0.224-0.5-0.5 S1.213,2.001,1.489,2.001 M1.489,1.001c-0.828,0-1.5,0.672-1.5,1.5s0.672,1.5,1.5,1.5s1.5-0.672,1.5-1.5S2.317,1.001,1.489,1.001 L1.489,1.001z"/><g><circle cx="38.489" cy="2.501" r=".8" fill="#839cb2"/></g><g><path fill="#66798f" d="M38.489,2.001c0.276,0,0.5,0.224,0.5,0.5s-0.224,0.5-0.5,0.5s-0.5-0.224-0.5-0.5 S38.213,2.001,38.489,2.001 M38.489,1.001c-0.828,0-1.5,0.672-1.5,1.5s0.672,1.5,1.5,1.5s1.5-0.672,1.5-1.5 S39.317,1.001,38.489,1.001L38.489,1.001z"/></g><g><rect width="1.67" height="1.925" x="14.311" y="27.016" fill="#66798f"/></g><g><rect width="1.67" height="1.925" x="13.003" y="26.977" fill="#66798f"/></g><g><rect width=".864" height="1.956" x="23.998" y="27.063" fill="#66798f"/></g><g><rect width=".927" height="1.956" x="26.059" y="27.063" fill="#66798f"/></g></svg>