<?xml version="1.0" standalone="no"?>
<!DOCTYPE svg PUBLIC "-//W3C//DTD SVG 20010904//EN"
 "http://www.w3.org/TR/2001/REC-SVG-20010904/DTD/svg10.dtd">
<svg version="1.0" xmlns="http://www.w3.org/2000/svg"
 width="600.000000pt" height="600.000000pt" viewBox="0 0 600.000000 600.000000"
 preserveAspectRatio="xMidYMid meet">
<metadata>
Created by potrace 1.14, written by Peter Selinger 2001-2017
</metadata>
<g transform="translate(0.000000,600.000000) scale(0.100000,-0.100000)"
fill="#000000" stroke="none">
<path d="M3658 5969 c-109 -12 -248 -47 -353 -90 -16 -7 -34 -13 -40 -15 -66
-17 -278 -121 -420 -205 -241 -143 -594 -467 -809 -740 -27 -35 -146 -218
-234 -361 -105 -170 -210 -405 -238 -533 -1 -5 -6 -28 -12 -50 -30 -114 -34
-288 -9 -375 11 -39 15 -84 13 -153 -5 -145 34 -292 95 -360 9 -10 17 -35 18
-55 2 -108 31 -237 67 -298 14 -24 30 -44 35 -44 25 0 3 -18 -54 -43 -127 -57
-183 -88 -214 -117 l-31 -30 -44 70 c-33 54 -52 74 -85 90 -64 30 -117 33
-162 10 -74 -37 -230 -212 -303 -340 -33 -58 -69 -164 -72 -212 -1 -22 -11
-47 -23 -60 -44 -48 -141 -259 -157 -339 -2 -13 -9 -44 -15 -69 -13 -59 -21
-98 -26 -139 -3 -18 -7 -36 -9 -40 -3 -4 -7 -35 -11 -70 -4 -34 -8 -72 -11
-84 -20 -104 -25 -465 -10 -645 7 -76 6 -96 -7 -110 -30 -34 -48 -83 -45 -125
2 -39 14 -78 66 -212 17 -43 20 -89 10 -136 -4 -19 56 -27 222 -29 80 -1 159
-3 175 -5 29 -4 72 -7 340 -21 203 -11 615 -9 655 4 37 11 400 10 565 -3 50
-4 110 -8 135 -10 224 -18 318 -20 640 -16 69 1 257 2 419 1 426 0 1119 8
1171 15 103 13 107 16 114 126 4 63 1 86 -21 144 -32 89 -32 141 1 335 62 359
70 431 68 565 -2 147 -45 320 -88 356 -11 9 -8 21 18 65 38 68 35 107 -17 206
-19 38 -33 72 -31 77 3 4 18 7 33 6 45 -2 121 21 158 50 19 14 46 45 59 68 23
38 70 170 80 221 2 12 9 40 14 63 5 24 8 43 6 43 -2 0 12 25 32 55 21 30 38
54 40 52 2 -1 6 -18 9 -37 17 -101 72 -236 115 -282 l20 -22 -22 -21 c-64 -57
-201 -135 -241 -136 l-32 -1 30 -13 c45 -21 132 -18 180 5 40 19 105 94 105
120 0 8 7 9 18 5 39 -16 52 -17 52 -4 0 8 -9 20 -20 27 -28 17 -25 34 16 83
76 91 108 190 120 364 2 33 6 206 9 383 3 178 8 328 11 334 10 15 12 53 19
273 12 368 12 441 3 505 -4 36 -10 79 -12 95 -20 148 -112 478 -171 610 -12
28 -41 93 -64 146 -81 185 -197 377 -304 504 -100 117 -164 167 -467 363 -185
119 -359 179 -615 211 -82 10 -360 10 -457 0z m-1882 -1751 c-3 -13 -12 -50
-21 -83 -9 -33 -18 -69 -20 -80 -22 -119 -41 -180 -77 -251 -24 -46 -46 -84
-50 -84 -4 0 -5 6 -3 13 4 12 10 38 21 106 14 82 134 401 151 401 2 0 1 -10
-1 -22z m-86 -447 c-4 -24 -8 -104 -8 -177 0 -74 -4 -133 -8 -133 -13 3 -38
48 -56 100 -15 45 -15 50 6 110 24 68 65 153 71 147 2 -1 0 -23 -5 -47z m-57
-364 l46 -68 -6 -107 c-3 -59 -6 -108 -8 -110 -3 -4 -51 97 -65 138 -11 35
-27 229 -17 220 3 -3 25 -36 50 -73z m161 -370 c8 -72 49 -203 83 -264 29 -52
29 -53 -2 -53 -13 0 -36 -5 -50 -12 -14 -6 -27 -9 -29 -7 -3 2 -14 38 -25 79
-15 55 -19 98 -17 160 5 112 15 169 28 146 5 -9 11 -31 12 -49z m3827 -119 c2
-172 0 -396 -5 -458 -13 -143 -65 -320 -96 -320 -10 0 -46 48 -72 96 -22 42
-54 149 -63 210 -6 48 -4 57 32 120 82 146 148 304 172 414 15 67 19 80 25 80
2 0 5 -64 7 -142z m-511 -750 c-35 -146 -76 -198 -162 -202 -23 -1 -27 4 -32
34 -10 59 -7 67 21 75 41 10 114 68 151 119 18 25 35 46 36 46 2 0 -4 -33 -14
-72z"/>
<path d="M697 5554 c-1 -1 -20 -4 -42 -7 -83 -11 -162 -35 -225 -67 -80 -41
-190 -186 -190 -250 0 -32 43 -70 71 -63 35 9 48 22 71 70 11 23 39 62 64 86
35 36 58 48 126 69 92 27 189 35 233 18 45 -17 116 -80 131 -116 19 -47 20
-114 1 -150 -9 -18 -54 -60 -101 -94 -99 -74 -122 -113 -125 -215 -2 -62 22
-167 51 -223 16 -31 66 -43 96 -24 43 28 45 46 17 133 -23 69 -28 118 -16 166
1 1 39 32 86 68 71 56 89 76 118 133 37 75 39 118 12 232 -6 27 -38 81 -61
106 -42 44 -130 102 -172 113 -35 9 -139 20 -145 15z"/>
<path d="M830 4548 c-67 -45 -70 -130 -6 -169 81 -49 153 -1 161 108 3 36 -36
75 -80 80 -31 3 -48 -1 -75 -19z"/>
<path d="M860 3588 c-80 -87 -109 -292 -59 -425 28 -75 98 -142 129 -123 10 6
5 16 -22 42 -68 64 -99 156 -91 275 4 72 5 79 26 127 9 21 17 41 17 43 0 3 9
16 20 30 36 47 20 73 -20 31z"/>
<path d="M1107 3557 c-37 -49 -56 -135 -54 -241 2 -81 5 -96 31 -137 46 -73
126 -117 126 -69 0 11 -6 20 -13 20 -24 0 -87 72 -98 114 -23 80 -3 254 36
309 33 48 8 51 -28 4z"/>
</g>
</svg>
