<?xml version="1.0" standalone="no"?>
<!DOCTYPE svg PUBLIC "-//W3C//DTD SVG 20010904//EN"
 "http://www.w3.org/TR/2001/REC-SVG-20010904/DTD/svg10.dtd">
<svg version="1.0" xmlns="http://www.w3.org/2000/svg"
 width="100.000000pt" height="86.000000pt" viewBox="0 0 100.000000 86.000000"
 preserveAspectRatio="xMidYMid meet">

<g transform="translate(0.000000,86.000000) scale(0.100000,-0.100000)"
fill="#000000" stroke="none">
<path d="M333 836 c-33 -28 -67 -97 -79 -161 -4 -22 -11 -42 -15 -45 -5 -3 1
-11 12 -18 18 -12 20 -11 15 5 -16 49 51 204 94 218 40 13 130 -20 178 -65 16
-15 30 -20 47 -16 13 3 43 0 67 -8 47 -17 61 -14 29 6 -12 7 -21 16 -21 20 0
10 86 53 132 66 43 12 69 -2 95 -51 22 -42 43 -135 36 -154 -5 -13 -2 -13 15
-4 27 14 42 37 19 28 -13 -5 -17 0 -17 22 0 40 -26 109 -56 148 -20 27 -32 33
-62 33 -42 0 -110 -29 -159 -66 -39 -30 -93 -32 -117 -5 -21 23 -96 57 -147
66 -29 5 -41 2 -66 -19z"/>
<path d="M932 603 c90 -175 47 -267 -156 -335 -88 -29 -76 -37 17 -13 32 8 60
15 63 15 16 0 44 -71 44 -114 0 -41 -5 -53 -34 -82 -29 -29 -41 -34 -79 -34
-80 0 -86 43 -15 105 30 25 37 35 24 35 -28 0 -96 -73 -96 -103 0 -23 -4 -25
-55 -29 -56 -3 -63 0 -44 19 17 17 1 52 -34 74 -34 20 -102 25 -127 9 -11 -7
-4 -10 26 -10 143 0 158 -94 17 -107 -157 -14 -283 56 -303 169 -10 53 5 105
41 140 l28 29 38 -42 c57 -63 121 -86 218 -79 17 2 -1 7 -39 11 -91 12 -146
45 -192 114 -42 63 -51 114 -31 172 15 44 13 53 -12 53 -10 0 -12 -3 -5 -10 8
-8 7 -24 -3 -55 -13 -38 -13 -50 1 -97 18 -64 9 -80 -59 -97 -82 -20 -154
-109 -155 -189 0 -36 21 -52 45 -32 11 9 15 9 15 1 0 -18 80 -51 124 -51 22 0
64 -12 94 -27 49 -24 66 -27 141 -25 47 1 161 3 252 4 151 3 169 5 189 23 54
49 66 130 28 196 l-21 38 51 46 c77 70 91 143 43 234 -14 29 -17 41 -8 45 7 2
2 5 -11 5 -13 1 -22 -2 -20 -6z m-757 -290 c-29 -71 -25 -123 14 -188 l20 -35
-25 0 c-37 0 -94 27 -94 44 0 24 -20 29 -41 10 -18 -17 -19 -16 -19 11 0 48
41 116 89 147 52 32 66 35 56 11z"/>
<path d="M498 509 c-25 -14 -24 -75 1 -89 25 -13 27 -13 45 6 9 8 16 26 16 39
0 22 -23 55 -38 55 -4 0 -15 -5 -24 -11z"/>
<path d="M774 495 c-35 -53 19 -113 58 -65 23 29 23 45 -2 70 -26 26 -36 25
-56 -5z"/>
<path d="M641 441 l-23 -18 46 0 c51 0 54 3 29 23 -23 17 -24 17 -52 -5z"/>
</g>
</svg>
