<?xml version="1.0" encoding="UTF-8"?>
<!DOCTYPE svg PUBLIC "-//W3C//DTD SVG 1.1//EN" "http://www.w3.org/Graphics/SVG/1.1/DTD/svg11.dtd">
<svg xmlns="http://www.w3.org/2000/svg" version="1.1" width="512px" height="512px" style="shape-rendering:geometricPrecision; text-rendering:geometricPrecision; image-rendering:optimizeQuality; fill-rule:evenodd; clip-rule:evenodd" xmlns:xlink="http://www.w3.org/1999/xlink">
<g><path style="opacity:0.988" fill="#fefefe" d="M 233.5,-0.5 C 248.167,-0.5 262.833,-0.5 277.5,-0.5C 377.79,11.9618 449.29,63.9618 492,155.5C 502.297,180.687 508.797,206.687 511.5,233.5C 511.5,248.167 511.5,262.833 511.5,277.5C 503.164,354.527 468.164,416.194 406.5,462.5C 407.919,445.425 405.253,429.091 398.5,413.5C 396.258,407.18 393.592,401.013 390.5,395C 390.989,393.862 391.322,392.695 391.5,391.5C 393.633,389.909 395.299,387.909 396.5,385.5C 399.54,382.086 401.54,378.086 402.5,373.5C 403.79,372.942 404.623,371.942 405,370.5C 407.097,364.344 407.93,358.01 407.5,351.5C 407.126,343.948 406.126,336.615 404.5,329.5C 404.791,328.351 405.624,327.684 407,327.5C 431.81,322.512 455.977,315.346 479.5,306C 489.546,301.897 498.713,296.397 507,289.5C 507.862,287.913 508.529,286.246 509,284.5C 507.789,263.44 504.122,242.774 498,222.5C 496.254,218.673 494.254,215.007 492,211.5C 487.851,207.196 484.184,202.53 481,197.5C 476.76,184.207 471.76,171.207 466,158.5C 462.882,153.714 459.382,149.214 455.5,145C 453.19,144.503 450.857,144.337 448.5,144.5C 448.068,143.29 447.401,142.29 446.5,141.5C 446.376,139.418 445.376,137.918 443.5,137C 440.5,136.667 437.5,136.333 434.5,136C 432.024,132.855 429.69,129.688 427.5,126.5C 424.92,120.332 421.586,114.665 417.5,109.5C 412.687,102.521 406.687,96.6878 399.5,92C 397.47,90.1038 395.803,87.9371 394.5,85.5C 393.061,84.9366 391.561,84.6032 390,84.5C 383.774,87.0171 377.274,88.8505 370.5,90C 364.433,94.2243 363.099,99.3909 366.5,105.5C 366.5,106.5 366.5,107.5 366.5,108.5C 365.833,109.5 365.167,110.5 364.5,111.5C 363.5,111.833 362.833,112.5 362.5,113.5C 362.328,121.856 366.328,126.523 374.5,127.5C 375.579,129.543 377.246,130.876 379.5,131.5C 380.436,132.974 381.77,133.974 383.5,134.5C 384.167,134.5 384.5,134.833 384.5,135.5C 388.455,141.647 394.121,144.981 401.5,145.5C 404.37,146.528 406.37,148.528 407.5,151.5C 404.323,154.512 403.99,157.845 406.5,161.5C 406.179,163.048 405.179,163.715 403.5,163.5C 403.931,170.088 405.431,176.422 408,182.5C 412.806,193.446 418.139,204.112 424,214.5C 424.735,218.813 425.235,223.147 425.5,227.5C 425.813,231.042 425.479,234.375 424.5,237.5C 413.588,241.615 402.255,243.282 390.5,242.5C 390.167,242.5 389.833,242.5 389.5,242.5C 388.376,241.191 386.876,240.525 385,240.5C 379.84,242.668 375.673,241.668 372.5,237.5C 366.519,228.859 360.186,220.525 353.5,212.5C 351.656,208.808 349.323,205.475 346.5,202.5C 342.605,195.721 338.439,189.055 334,182.5C 333.51,181.207 333.343,179.873 333.5,178.5C 332.849,166.338 332.183,154.171 331.5,142C 332.501,126.326 333.501,110.659 334.5,95C 334.499,89.6555 334.166,84.4889 333.5,79.5C 333.178,58.1932 324.845,40.8598 308.5,27.5C 305.71,23.3717 302.043,20.3717 297.5,18.5C 292.25,13.9391 286.25,10.6057 279.5,8.5C 274.707,5.40113 269.373,3.56779 263.5,3C 253.862,1.68564 244.196,1.35231 234.5,2C 219.373,5.15859 204.373,8.82526 189.5,13C 182.437,15.8542 176.104,19.6875 170.5,24.5C 168.596,24.7376 167.262,25.7376 166.5,27.5C 155.012,34.6536 146.345,44.3203 140.5,56.5C 129.904,69.6975 123.071,84.6975 120,101.5C 118.647,115.425 119.981,129.091 124,142.5C 126.739,152.215 129.572,161.881 132.5,171.5C 132.5,172.167 132.833,172.5 133.5,172.5C 135.277,183.387 137.944,194.053 141.5,204.5C 143.34,210.209 145.007,215.876 146.5,221.5C 147.221,224.817 147.388,228.151 147,231.5C 144.455,237.585 141.121,243.251 137,248.5C 133.904,254.251 133.071,260.251 134.5,266.5C 132.031,267.317 129.365,267.817 126.5,268C 124.34,268.996 122.673,270.496 121.5,272.5C 121.167,273.167 120.833,273.833 120.5,274.5C 112.453,274.277 104.453,274.777 96.5,276C 88.8123,280.013 80.8123,283.179 72.5,285.5C 70.8394,283.173 68.8394,281.173 66.5,279.5C 65.8892,273.108 64.2225,267.108 61.5,261.5C 60.0512,259.075 59.3845,256.409 59.5,253.5C 62.3168,238.935 64.3168,224.269 65.5,209.5C 64.8745,205.693 63.8745,202.027 62.5,198.5C 61.4448,195.927 61.2782,193.261 62,190.5C 66.1471,188.518 69.9805,186.184 73.5,183.5C 80.3462,180.66 85.6796,175.993 89.5,169.5C 93.0495,168.277 96.0495,166.277 98.5,163.5C 98.8039,162.85 99.1373,162.183 99.5,161.5C 97.3008,158.111 95.9675,154.444 95.5,150.5C 98.6285,147.899 99.7951,144.566 99,140.5C 97.2621,136.759 94.7621,133.592 91.5,131C 86.0777,127.526 80.2444,125.026 74,123.5C 69.9131,124.361 66.0797,125.694 62.5,127.5C 56.5106,129.491 51.1773,132.491 46.5,136.5C 43.5,137.5 41.5,139.5 40.5,142.5C 36.3864,145.718 34.053,150.051 33.5,155.5C 31.1753,164.129 28.842,172.796 26.5,181.5C 24.0257,183.898 22.6924,186.898 22.5,190.5C 21.448,190.351 20.448,190.517 19.5,191C 18.281,193.278 16.9477,195.445 15.5,197.5C 8.37267,198.705 5.37267,203.038 6.5,210.5C 5.5,210.5 4.5,210.5 3.5,210.5C 17.723,135.808 56.723,77.9745 120.5,37C 155.446,15.9621 193.113,3.46214 233.5,-0.5 Z"/></g>
<g><path style="opacity:1" fill="#78776d" d="M 279.5,8.5 C 273.187,6.89518 266.853,5.39518 260.5,4C 249.131,3.20651 237.798,3.53984 226.5,5C 216.833,7.33333 207.167,9.66667 197.5,12C 187.978,15.0951 178.978,19.2618 170.5,24.5C 176.104,19.6875 182.437,15.8542 189.5,13C 204.373,8.82526 219.373,5.15859 234.5,2C 244.196,1.35231 253.862,1.68564 263.5,3C 269.373,3.56779 274.707,5.40113 279.5,8.5 Z"/></g>
<g><path style="opacity:1" fill="#cbbfa6" d="M 279.5,8.5 C 286.25,10.6057 292.25,13.9391 297.5,18.5C 300.871,21.8715 304.537,24.8715 308.5,27.5C 315.888,35.9185 322.055,45.2518 327,55.5C 330.462,65.184 332.462,75.184 333,85.5C 333.495,83.5273 333.662,81.5273 333.5,79.5C 334.166,84.4889 334.499,89.6555 334.5,95C 333.501,110.659 332.501,126.326 331.5,142C 332.183,154.171 332.849,166.338 333.5,178.5C 330.003,174.852 327.503,170.519 326,165.5C 324.973,161.392 323.64,157.392 322,153.5C 321.828,148.798 321.328,144.132 320.5,139.5C 319.335,149.521 320.835,159.188 325,168.5C 330.942,180.742 338.109,192.076 346.5,202.5C 349.323,205.475 351.656,208.808 353.5,212.5C 356.252,217.1 359.252,221.6 362.5,226C 362.272,226.399 361.938,226.565 361.5,226.5C 360.609,225.89 359.609,225.557 358.5,225.5C 357.791,224.596 356.791,224.263 355.5,224.5C 352.695,223.681 349.695,223.181 346.5,223C 331.049,203.932 319.382,182.765 311.5,159.5C 311.666,154.489 311.499,149.489 311,144.5C 309.39,140.557 306.723,137.557 303,135.5C 302.667,128.833 302.333,122.167 302,115.5C 301.83,121.196 301.33,126.862 300.5,132.5C 299.604,115.504 298.771,98.5037 298,81.5C 297.921,77.6423 297.254,73.9756 296,70.5C 297.204,93.802 298.037,117.135 298.5,140.5C 298.438,151.187 298.105,161.854 297.5,172.5C 297.243,186.223 296.243,199.89 294.5,213.5C 287.469,246.143 283.136,279.143 281.5,312.5C 282.126,328.177 282.959,343.844 284,359.5C 287.188,376.642 290.354,393.642 293.5,410.5C 293.5,410.833 293.5,411.167 293.5,411.5C 295.838,425.869 300.171,439.536 306.5,452.5C 305.041,452.567 303.708,452.234 302.5,451.5C 285.833,444.833 274.167,433.167 267.5,416.5C 265.203,408.643 263.536,400.643 262.5,392.5C 261.235,381.87 260.235,371.203 259.5,360.5C 259.167,362.667 258.833,364.833 258.5,367C 259.078,374.828 259.578,382.662 260,390.5C 260.278,391.416 260.778,392.082 261.5,392.5C 261.345,402.041 262.012,411.374 263.5,420.5C 265.229,436.728 271.562,450.728 282.5,462.5C 282.5,462.833 282.5,463.167 282.5,463.5C 274.286,463.308 268.119,459.642 264,452.5C 256.552,438.833 253.052,424.167 253.5,408.5C 253.398,396.817 253.731,385.15 254.5,373.5C 257.505,348.467 260.839,323.467 264.5,298.5C 267.148,283.957 269.815,269.29 272.5,254.5C 273.404,253.791 273.737,252.791 273.5,251.5C 279.013,229.926 282.68,207.926 284.5,185.5C 285.831,177.361 286.498,168.861 286.5,160C 286.333,151.5 286.167,143 286,134.5C 285.798,132.744 285.298,131.078 284.5,129.5C 281.613,137.583 279.78,145.916 279,154.5C 277.885,168.145 277.385,181.811 277.5,195.5C 277.622,213.708 275.956,231.708 272.5,249.5C 271.494,241.891 271.161,232.891 271.5,222.5C 271.237,204.81 271.57,187.143 272.5,169.5C 272.653,160.79 273.32,152.123 274.5,143.5C 275.661,127.672 275.828,111.672 275,95.5C 274.433,75.8006 269.766,57.134 261,39.5C 258.955,36.5767 256.788,33.7433 254.5,31C 253.207,30.51 251.873,30.3433 250.5,30.5C 250.459,37.6319 251.793,44.2986 254.5,50.5C 262.734,71.8727 268.734,93.8727 272.5,116.5C 273.917,127.512 273.75,138.512 272,149.5C 265,138.5 258,127.5 251,116.5C 238.355,101.209 226.689,85.2091 216,68.5C 216.572,82.5046 217.238,96.5046 218,110.5C 214.491,93.5587 210.158,76.892 205,60.5C 208.281,80.0641 212.781,99.3974 218.5,118.5C 221.12,127.187 223.62,135.853 226,144.5C 200.077,127.902 182.411,104.902 173,75.5C 171.289,70.6151 169.955,65.6151 169,60.5C 168.667,63.8333 168.333,67.1667 168,70.5C 163.921,81.2374 160.754,92.2374 158.5,103.5C 157.596,104.209 157.263,105.209 157.5,106.5C 153.88,121.908 152.047,137.575 152,153.5C 139.759,134.176 135.759,113.176 140,90.5C 142.182,77.805 146.348,65.805 152.5,54.5C 152.167,54.1667 151.833,53.8333 151.5,53.5C 134.193,83.1217 132.026,113.788 145,145.5C 147.416,150.001 150.083,154.334 153,158.5C 154.739,163.883 156.572,169.216 158.5,174.5C 159.256,222.827 159.756,271.16 160,319.5C 160.667,325.5 161.333,331.5 162,337.5C 162.749,342.855 164.249,347.855 166.5,352.5C 166.5,353.833 166.5,355.167 166.5,356.5C 162.492,377.87 164.326,398.87 172,419.5C 173.018,420.706 173.518,420.373 173.5,418.5C 166.608,399.322 164.774,379.656 168,359.5C 169.517,361.24 171.017,362.906 172.5,364.5C 172.337,371.062 173.004,377.395 174.5,383.5C 174.981,390.046 175.981,396.379 177.5,402.5C 177.5,402.833 177.5,403.167 177.5,403.5C 180.249,418.853 185.582,433.186 193.5,446.5C 193.167,446.833 192.833,447.167 192.5,447.5C 187.346,445.09 182.346,442.423 177.5,439.5C 176.564,438.026 175.23,437.026 173.5,436.5C 169.522,432.187 165.522,427.854 161.5,423.5C 153.217,412.339 147.217,400.006 143.5,386.5C 143.38,382.958 143.714,379.458 144.5,376C 143.684,372.805 143.017,372.972 142.5,376.5C 139.788,393.354 140.122,410.02 143.5,426.5C 143.5,426.833 143.5,427.167 143.5,427.5C 143.307,431.449 142.807,431.449 142,427.5C 141.14,421.966 139.973,416.632 138.5,411.5C 138.5,410.5 138.5,409.5 138.5,408.5C 138.5,394.167 138.5,379.833 138.5,365.5C 139.806,360.384 140.473,355.051 140.5,349.5C 143.904,324.152 148.571,299.152 154.5,274.5C 156.064,270.432 157.064,266.099 157.5,261.5C 156.024,256.133 155.024,250.799 154.5,245.5C 152.288,218.428 149.455,191.428 146,164.5C 145.333,170.167 145.333,175.833 146,181.5C 148.686,198.43 150.353,215.43 151,232.5C 150.617,231.944 150.117,231.611 149.5,231.5C 148.995,227.329 147.995,223.996 146.5,221.5C 145.007,215.876 143.34,210.209 141.5,204.5C 142.097,204.265 142.43,203.765 142.5,203C 139.557,192.709 136.557,182.542 133.5,172.5C 132.833,172.5 132.5,172.167 132.5,171.5C 133.124,171.083 133.457,170.416 133.5,169.5C 128.952,154.687 125.118,139.687 122,124.5C 120.161,109.702 121.828,95.3687 127,81.5C 131.525,73.1127 136.025,64.7793 140.5,56.5C 148.397,46.2628 157.064,36.5962 166.5,27.5C 167.262,25.7376 168.596,24.7376 170.5,24.5C 178.978,19.2618 187.978,15.0951 197.5,12C 207.167,9.66667 216.833,7.33333 226.5,5C 237.798,3.53984 249.131,3.20651 260.5,4C 266.853,5.39518 273.187,6.89518 279.5,8.5 Z"/></g>
<g><path style="opacity:1" fill="#7b776b" d="M 297.5,18.5 C 302.043,20.3717 305.71,23.3717 308.5,27.5C 304.537,24.8715 300.871,21.8715 297.5,18.5 Z"/></g>
<g><path style="opacity:1" fill="#706f68" d="M 166.5,27.5 C 157.064,36.5962 148.397,46.2628 140.5,56.5C 146.345,44.3203 155.012,34.6536 166.5,27.5 Z"/></g>
<g><path style="opacity:1" fill="#9c8a6f" d="M 274.5,143.5 C 274.827,133.652 274.494,123.986 273.5,114.5C 270.011,92.5307 264.177,71.1974 256,50.5C 255.31,49.2617 254.81,49.2617 254.5,50.5C 251.793,44.2986 250.459,37.6319 250.5,30.5C 251.873,30.3433 253.207,30.51 254.5,31C 256.788,33.7433 258.955,36.5767 261,39.5C 269.766,57.134 274.433,75.8006 275,95.5C 275.828,111.672 275.661,127.672 274.5,143.5 Z"/></g>
<g><path style="opacity:1" fill="#706c61" d="M 308.5,27.5 C 324.845,40.8598 333.178,58.1932 333.5,79.5C 333.662,81.5273 333.495,83.5273 333,85.5C 332.462,75.184 330.462,65.184 327,55.5C 322.055,45.2518 315.888,35.9185 308.5,27.5 Z"/></g>
<g><path style="opacity:1" fill="#8f8470" d="M 157.5,106.5 C 158.156,107.622 158.489,108.955 158.5,110.5C 158.036,113.887 157.369,117.22 156.5,120.5C 154.632,133.435 154.132,146.435 155,159.5C 156.723,164.613 158.723,169.613 161,174.5C 163.03,186.751 166.03,198.751 170,210.5C 172.335,213.665 174.835,216.665 177.5,219.5C 176.833,219.5 176.5,219.833 176.5,220.5C 169.305,214.147 164.805,206.147 163,196.5C 162.733,188.787 161.233,181.454 158.5,174.5C 156.572,169.216 154.739,163.883 153,158.5C 150.083,154.334 147.416,150.001 145,145.5C 132.026,113.788 134.193,83.1217 151.5,53.5C 151.833,53.8333 152.167,54.1667 152.5,54.5C 146.348,65.805 142.182,77.805 140,90.5C 135.759,113.176 139.759,134.176 152,153.5C 152.047,137.575 153.88,121.908 157.5,106.5 Z"/></g>
<g><path style="opacity:1" fill="#7a6b54" d="M 273.5,114.5 C 273.672,115.492 273.338,116.158 272.5,116.5C 268.734,93.8727 262.734,71.8727 254.5,50.5C 254.81,49.2617 255.31,49.2617 256,50.5C 264.177,71.1974 270.011,92.5307 273.5,114.5 Z"/></g>
<g><path style="opacity:1" fill="#71716c" d="M 417.5,109.5 C 408.702,101.351 399.702,93.6842 390.5,86.5C 383.559,88.8192 376.559,90.9858 369.5,93C 366.682,96.3379 365.849,100.171 367,104.5C 370.405,101.216 373.905,98.0498 377.5,95C 379.212,93.2491 381.212,92.5825 383.5,93C 377.742,96.7538 372.575,101.254 368,106.5C 367.617,105.944 367.117,105.611 366.5,105.5C 363.099,99.3909 364.433,94.2243 370.5,90C 377.274,88.8505 383.774,87.0171 390,84.5C 391.561,84.6032 393.061,84.9366 394.5,85.5C 395.803,87.9371 397.47,90.1038 399.5,92C 406.687,96.6878 412.687,102.521 417.5,109.5 Z"/></g>
<g><path style="opacity:1" fill="#baa392" d="M 174.5,85.5 C 172.501,87.7979 170.501,90.1312 168.5,92.5C 167.215,95.0205 166.548,97.6872 166.5,100.5C 165.603,99.4019 164.77,99.4019 164,100.5C 163.503,102.81 163.337,105.143 163.5,107.5C 161.926,107.937 160.759,108.937 160,110.5C 159.698,114.245 158.531,117.578 156.5,120.5C 157.369,117.22 158.036,113.887 158.5,110.5C 158.489,108.955 158.156,107.622 157.5,106.5C 157.263,105.209 157.596,104.209 158.5,103.5C 158.369,104.239 158.536,104.906 159,105.5C 161.93,94.31 165.43,83.31 169.5,72.5C 171.764,76.6285 173.431,80.9619 174.5,85.5 Z"/></g>
<g><path style="opacity:1" fill="#827663" d="M 272.5,116.5 C 273.338,116.158 273.672,115.492 273.5,114.5C 274.494,123.986 274.827,133.652 274.5,143.5C 273.32,152.123 272.653,160.79 272.5,169.5C 271.518,166.038 271.185,162.371 271.5,158.5C 271.789,155.351 271.289,152.351 270,149.5C 261.12,134.902 251.62,120.736 241.5,107C 239.833,106.333 238.167,106.333 236.5,107C 231.674,109.036 227.007,111.203 222.5,113.5C 222.334,107.824 222.501,102.157 223,96.5C 224.045,95.6266 224.878,94.6266 225.5,93.5C 227.288,93.7852 228.955,93.4519 230.5,92.5C 226.138,86.6379 221.972,80.6379 218,74.5C 217.366,77.5547 217.532,80.5547 218.5,83.5C 218.557,89.8513 218.89,96.1846 219.5,102.5C 219.821,108.026 219.488,113.36 218.5,118.5C 212.781,99.3974 208.281,80.0641 205,60.5C 210.158,76.892 214.491,93.5587 218,110.5C 217.238,96.5046 216.572,82.5046 216,68.5C 226.689,85.2091 238.355,101.209 251,116.5C 258,127.5 265,138.5 272,149.5C 273.75,138.512 273.917,127.512 272.5,116.5 Z"/></g>
<g><path style="opacity:1" fill="#bca495" d="M 225.5,93.5 C 223.646,89.7792 221.313,86.4459 218.5,83.5C 217.532,80.5547 217.366,77.5547 218,74.5C 221.972,80.6379 226.138,86.6379 230.5,92.5C 228.955,93.4519 227.288,93.7852 225.5,93.5 Z"/></g>
<g><path style="opacity:1" fill="#99846b" d="M 225.5,95.5 C 227.857,95.3367 230.19,95.5034 232.5,96C 235.069,98.4794 237.402,101.146 239.5,104C 233.963,105.464 228.963,107.964 224.5,111.5C 223.36,106.09 223.693,100.757 225.5,95.5 Z"/></g>
<g><path style="opacity:1" fill="#92826b" d="M 166.5,100.5 C 172.972,105.138 178.638,110.638 183.5,117C 183.095,117.945 182.428,118.612 181.5,119C 176.833,119.667 172.167,119.667 167.5,119C 165.177,115.554 163.843,111.721 163.5,107.5C 163.337,105.143 163.503,102.81 164,100.5C 164.77,99.4019 165.603,99.4019 166.5,100.5 Z"/></g>
<g><path style="opacity:1" fill="#82807b" d="M 366.5,108.5 C 368.75,114.892 371.417,121.226 374.5,127.5C 366.328,126.523 362.328,121.856 362.5,113.5C 363.145,119.298 366.145,123.131 371.5,125C 369.252,121.26 367.585,117.26 366.5,113C 366.164,111.97 365.497,111.47 364.5,111.5C 365.167,110.5 365.833,109.5 366.5,108.5 Z"/></g>
<g><path style="opacity:1" fill="#6d6e69" d="M 140.5,56.5 C 136.025,64.7793 131.525,73.1127 127,81.5C 121.828,95.3687 120.161,109.702 122,124.5C 125.118,139.687 128.952,154.687 133.5,169.5C 133.457,170.416 133.124,171.083 132.5,171.5C 129.572,161.881 126.739,152.215 124,142.5C 119.981,129.091 118.647,115.425 120,101.5C 123.071,84.6975 129.904,69.6975 140.5,56.5 Z"/></g>
<g><path style="opacity:1" fill="#d4cfc8" d="M 364.5,111.5 C 365.497,111.47 366.164,111.97 366.5,113C 367.585,117.26 369.252,121.26 371.5,125C 366.145,123.131 363.145,119.298 362.5,113.5C 362.833,112.5 363.5,111.833 364.5,111.5 Z"/></g>
<g><path style="opacity:1" fill="#9b948c" d="M 379.5,131.5 C 377.246,130.876 375.579,129.543 374.5,127.5C 375.376,127.631 376.043,127.298 376.5,126.5C 374.536,121.655 373.703,116.655 374,111.5C 377.204,108.146 381.037,106.313 385.5,106C 382.08,107.746 378.913,109.913 376,112.5C 376.047,118.983 377.547,125.149 380.5,131C 380.272,131.399 379.938,131.565 379.5,131.5 Z"/></g>
<g><path style="opacity:1" fill="#d8d0c7" d="M 417.5,109.5 C 421.586,114.665 424.92,120.332 427.5,126.5C 430.481,132.489 433.481,138.489 436.5,144.5C 435.333,146.498 433.666,147.998 431.5,149C 425.982,151.296 420.315,153.13 414.5,154.5C 404.246,145.833 395.246,136 387.5,125C 385.741,124.202 384.074,124.369 382.5,125.5C 387.397,125.395 389.397,127.728 388.5,132.5C 386.447,132.402 384.78,133.069 383.5,134.5C 381.77,133.974 380.436,132.974 379.5,131.5C 379.938,131.565 380.272,131.399 380.5,131C 377.547,125.149 376.047,118.983 376,112.5C 378.913,109.913 382.08,107.746 385.5,106C 381.037,106.313 377.204,108.146 374,111.5C 373.703,116.655 374.536,121.655 376.5,126.5C 376.043,127.298 375.376,127.631 374.5,127.5C 371.417,121.226 368.75,114.892 366.5,108.5C 366.5,107.5 366.5,106.5 366.5,105.5C 367.117,105.611 367.617,105.944 368,106.5C 372.575,101.254 377.742,96.7538 383.5,93C 381.212,92.5825 379.212,93.2491 377.5,95C 373.905,98.0498 370.405,101.216 367,104.5C 365.849,100.171 366.682,96.3379 369.5,93C 376.559,90.9858 383.559,88.8192 390.5,86.5C 399.702,93.6842 408.702,101.351 417.5,109.5 Z"/></g>
<g><path style="opacity:1" fill="#d6cfc6" d="M 95.5,150.5 C 94.3951,151.6 93.0618,152.267 91.5,152.5C 91.1165,146.259 89.6165,140.259 87,134.5C 86.1627,132.993 84.9961,132.493 83.5,133C 86.9412,138.027 88.4412,143.527 88,149.5C 83.3345,151.148 80.8345,154.481 80.5,159.5C 78.5914,160.348 76.5914,160.682 74.5,160.5C 74.719,159.325 74.3857,158.325 73.5,157.5C 69.5311,161.159 64.8644,162.659 59.5,162C 60.7654,157.526 60.0987,157.359 57.5,161.5C 53.7131,163.177 50.8798,162.177 49,158.5C 48.376,156.536 48.876,154.869 50.5,153.5C 48.19,149.764 47.5233,149.764 48.5,153.5C 45.9144,158.204 47.2478,161.704 52.5,164C 54.1341,164.494 55.8008,164.66 57.5,164.5C 57.5,165.833 57.5,167.167 57.5,168.5C 58.1061,172.459 58.7728,176.459 59.5,180.5C 64.987,174.024 71.6537,169.024 79.5,165.5C 80.1667,166.5 80.8333,167.5 81.5,168.5C 82.1067,168.376 82.44,168.043 82.5,167.5C 83.3891,165.264 84.7224,163.264 86.5,161.5C 83.7429,159.912 82.9096,157.579 84,154.5C 86.2415,152.285 88.7415,151.952 91.5,153.5C 94.7144,156.354 97.0478,159.687 98.5,163.5C 96.0495,166.277 93.0495,168.277 89.5,169.5C 85.9209,169.911 83.7542,171.911 83,175.5C 79.6425,178.031 76.4758,180.698 73.5,183.5C 69.8546,184.987 66.188,186.487 62.5,188C 60.3382,189.645 59.0049,191.812 58.5,194.5C 46.9082,196.294 35.5749,195.294 24.5,191.5C 24.31,187.968 24.9767,184.635 26.5,181.5C 28.842,172.796 31.1753,164.129 33.5,155.5C 35.5467,151.676 37.8801,147.343 40.5,142.5C 41.5,139.5 43.5,137.5 46.5,136.5C 52.635,133.797 57.9683,130.797 62.5,127.5C 66.0797,125.694 69.9131,124.361 74,123.5C 80.2444,125.026 86.0777,127.526 91.5,131C 94.7621,133.592 97.2621,136.759 99,140.5C 99.7951,144.566 98.6285,147.899 95.5,150.5 Z"/></g>
<g><path style="opacity:1" fill="#d8d0c7" d="M 218.5,83.5 C 221.313,86.4459 223.646,89.7792 225.5,93.5C 224.878,94.6266 224.045,95.6266 223,96.5C 222.501,102.157 222.334,107.824 222.5,113.5C 227.007,111.203 231.674,109.036 236.5,107C 238.167,106.333 239.833,106.333 241.5,107C 251.62,120.736 261.12,134.902 270,149.5C 271.289,152.351 271.789,155.351 271.5,158.5C 269.939,175.64 269.105,192.973 269,210.5C 255.507,224.492 239.674,234.825 221.5,241.5C 219.435,241.483 217.435,241.15 215.5,240.5C 202.547,234.023 189.88,227.023 177.5,219.5C 174.835,216.665 172.335,213.665 170,210.5C 166.03,198.751 163.03,186.751 161,174.5C 158.723,169.613 156.723,164.613 155,159.5C 154.132,146.435 154.632,133.435 156.5,120.5C 158.531,117.578 159.698,114.245 160,110.5C 160.759,108.937 161.926,107.937 163.5,107.5C 163.843,111.721 165.177,115.554 167.5,119C 172.167,119.667 176.833,119.667 181.5,119C 182.428,118.612 183.095,117.945 183.5,117C 178.638,110.638 172.972,105.138 166.5,100.5C 166.548,97.6872 167.215,95.0205 168.5,92.5C 170.501,90.1312 172.501,87.7979 174.5,85.5C 182.557,104.409 194.224,120.909 209.5,135C 214.991,139.582 220.991,143.415 227.5,146.5C 228.631,144.926 228.798,143.259 228,141.5C 222.124,129.016 219.291,116.016 219.5,102.5C 218.89,96.1846 218.557,89.8513 218.5,83.5 Z"/></g>
<g><path style="opacity:1" fill="#948c83" d="M 234.5,123.5 C 235.239,123.369 235.906,123.536 236.5,124C 233.269,126.727 230.603,129.894 228.5,133.5C 227.432,131.813 227.599,130.146 229,128.5C 230.73,126.598 232.563,124.931 234.5,123.5 Z"/></g>
<g><path style="opacity:1" fill="#373533" d="M 263.5,160.5 C 263.11,144.278 254.777,136.445 238.5,137C 237,138.5 235.5,140 234,141.5C 233.51,140.207 233.343,138.873 233.5,137.5C 233.234,129.6 236.901,126.767 244.5,129C 254.692,133.172 262.526,140.005 268,149.5C 268.667,151.167 268.667,152.833 268,154.5C 266.406,156.526 264.906,158.526 263.5,160.5 Z"/></g>
<g><path style="opacity:1" fill="#8d8d8b" d="M 62.5,127.5 C 57.9683,130.797 52.635,133.797 46.5,136.5C 51.1773,132.491 56.5106,129.491 62.5,127.5 Z"/></g>
<g><path style="opacity:1" fill="#8e8370" d="M 311.5,159.5 C 311.167,159.5 310.833,159.5 310.5,159.5C 310.657,158.127 310.49,156.793 310,155.5C 309.768,156.737 309.268,157.737 308.5,158.5C 308.666,153.156 308.499,147.823 308,142.5C 306.67,138.993 304.17,137.327 300.5,137.5C 300.5,140.167 300.5,142.833 300.5,145.5C 302.103,145.312 303.437,145.812 304.5,147C 302.671,147.273 301.171,148.107 300,149.5C 299.5,156.826 299.334,164.159 299.5,171.5C 298.833,171.833 298.167,172.167 297.5,172.5C 298.105,161.854 298.438,151.187 298.5,140.5C 298.037,117.135 297.204,93.802 296,70.5C 297.254,73.9756 297.921,77.6423 298,81.5C 298.771,98.5037 299.604,115.504 300.5,132.5C 301.33,126.862 301.83,121.196 302,115.5C 302.333,122.167 302.667,128.833 303,135.5C 306.723,137.557 309.39,140.557 311,144.5C 311.499,149.489 311.666,154.489 311.5,159.5 Z"/></g>
<g><path style="opacity:1" fill="#8c8375" d="M 218.5,118.5 C 219.488,113.36 219.821,108.026 219.5,102.5C 219.291,116.016 222.124,129.016 228,141.5C 228.798,143.259 228.631,144.926 227.5,146.5C 220.991,143.415 214.991,139.582 209.5,135C 194.224,120.909 182.557,104.409 174.5,85.5C 173.431,80.9619 171.764,76.6285 169.5,72.5C 165.43,83.31 161.93,94.31 159,105.5C 158.536,104.906 158.369,104.239 158.5,103.5C 160.754,92.2374 163.921,81.2374 168,70.5C 168.333,67.1667 168.667,63.8333 169,60.5C 169.955,65.6151 171.289,70.6151 173,75.5C 182.411,104.902 200.077,127.902 226,144.5C 223.62,135.853 221.12,127.187 218.5,118.5 Z"/></g>
<g><path style="opacity:1" fill="#a6957c" d="M 284.5,185.5 C 284.667,172.829 284.5,160.162 284,147.5C 282.833,150.167 281.667,152.833 280.5,155.5C 280.608,156.442 280.941,157.275 281.5,158C 279.421,170.417 278.087,182.917 277.5,195.5C 277.385,181.811 277.885,168.145 279,154.5C 279.78,145.916 281.613,137.583 284.5,129.5C 285.298,131.078 285.798,132.744 286,134.5C 286.167,143 286.333,151.5 286.5,160C 286.498,168.861 285.831,177.361 284.5,185.5 Z"/></g>
<g><path style="opacity:1" fill="#a0a3a2" d="M 263.5,160.5 C 262.883,160.389 262.383,160.056 262,159.5C 261.722,160.416 261.222,161.082 260.5,161.5C 260.666,157.486 260.499,153.486 260,149.5C 257.07,143.237 255.236,143.237 254.5,149.5C 255.575,145.062 253.908,143.062 249.5,143.5C 250.263,142.732 251.263,142.232 252.5,142C 248.742,139.131 244.742,138.798 240.5,141C 239.177,141.816 238.511,142.983 238.5,144.5C 238.167,144.5 237.833,144.5 237.5,144.5C 237.217,143.711 236.717,143.044 236,142.5C 234.667,144.167 233.333,145.833 232,147.5C 231.552,143.929 232.052,140.596 233.5,137.5C 233.343,138.873 233.51,140.207 234,141.5C 235.5,140 237,138.5 238.5,137C 254.777,136.445 263.11,144.278 263.5,160.5 Z"/></g>
<g><path style="opacity:1" fill="#363432" d="M 186.5,143.5 C 186.5,144.833 185.833,145.5 184.5,145.5C 175.521,142.929 169.688,146.262 167,155.5C 166.086,159.142 165.252,162.808 164.5,166.5C 163.817,166.137 163.15,165.804 162.5,165.5C 158.537,152.11 162.704,142.443 175,136.5C 180.237,136.578 184.071,138.912 186.5,143.5 Z"/></g>
<g><path style="opacity:1" fill="#ae9b8e" d="M 401.5,145.5 C 394.121,144.981 388.455,141.647 384.5,135.5C 386.707,134.261 389.041,133.761 391.5,134C 394.669,138.001 398.003,141.834 401.5,145.5 Z"/></g>
<g><path style="opacity:1" fill="#d3d3d3" d="M 446.5,141.5 C 447.401,142.29 448.068,143.29 448.5,144.5C 449.974,147.327 449.64,149.827 447.5,152C 436.536,157.736 425.036,161.902 413,164.5C 409.814,164.763 407.981,163.43 407.5,160.5C 405.257,155.91 406.59,153.576 411.5,153.5C 411.5,154.5 411.5,155.5 411.5,156.5C 423.268,155.192 433.601,150.692 442.5,143C 439.315,144.234 437.315,143.068 436.5,139.5C 440.37,137.859 443.703,138.526 446.5,141.5 Z"/></g>
<g><path style="opacity:1" fill="#85817c" d="M 427.5,126.5 C 429.69,129.688 432.024,132.855 434.5,136C 437.5,136.333 440.5,136.667 443.5,137C 445.376,137.918 446.376,139.418 446.5,141.5C 443.703,138.526 440.37,137.859 436.5,139.5C 437.315,143.068 439.315,144.234 442.5,143C 433.601,150.692 423.268,155.192 411.5,156.5C 411.5,155.5 411.5,154.5 411.5,153.5C 406.59,153.576 405.257,155.91 407.5,160.5C 406.833,160.5 406.5,160.833 406.5,161.5C 403.99,157.845 404.323,154.512 407.5,151.5C 406.37,148.528 404.37,146.528 401.5,145.5C 398.003,141.834 394.669,138.001 391.5,134C 389.041,133.761 386.707,134.261 384.5,135.5C 384.5,134.833 384.167,134.5 383.5,134.5C 384.78,133.069 386.447,132.402 388.5,132.5C 389.397,127.728 387.397,125.395 382.5,125.5C 384.074,124.369 385.741,124.202 387.5,125C 395.246,136 404.246,145.833 414.5,154.5C 420.315,153.13 425.982,151.296 431.5,149C 433.666,147.998 435.333,146.498 436.5,144.5C 433.481,138.489 430.481,132.489 427.5,126.5 Z"/></g>
<g><path style="opacity:1" fill="#cacbcb" d="M 249.5,143.5 C 253.908,143.062 255.575,145.062 254.5,149.5C 252.511,150.887 250.678,150.553 249,148.5C 248.22,146.613 248.387,144.946 249.5,143.5 Z"/></g>
<g><path style="opacity:1" fill="#3a3c3d" d="M 249.5,143.5 C 248.387,144.946 248.22,146.613 249,148.5C 250.678,150.553 252.511,150.887 254.5,149.5C 255.236,143.237 257.07,143.237 260,149.5C 260.499,153.486 260.666,157.486 260.5,161.5C 260.46,164.881 259.127,167.548 256.5,169.5C 252.742,171.183 248.742,171.849 244.5,171.5C 244.285,169.821 244.952,168.821 246.5,168.5C 249.523,170.161 251.857,169.495 253.5,166.5C 253.833,166.5 254.167,166.5 254.5,166.5C 254.369,167.376 254.702,168.043 255.5,168.5C 259.255,163.429 260.422,157.763 259,151.5C 258.586,151.043 258.086,150.709 257.5,150.5C 255.167,151.167 252.833,151.833 250.5,152.5C 248.348,150.188 246.348,150.522 244.5,153.5C 245.312,149.675 245.312,145.675 244.5,141.5C 242.473,142.513 240.473,143.513 238.5,144.5C 238.511,142.983 239.177,141.816 240.5,141C 244.742,138.798 248.742,139.131 252.5,142C 251.263,142.232 250.263,142.732 249.5,143.5 Z"/></g>
<g><path style="opacity:1" fill="#848683" d="M 40.5,142.5 C 37.8801,147.343 35.5467,151.676 33.5,155.5C 34.053,150.051 36.3864,145.718 40.5,142.5 Z"/></g>
<g><path style="opacity:1" fill="#ced0d0" d="M 183.5,150.5 C 186.776,151.122 188.109,153.122 187.5,156.5C 186.5,156.5 185.5,156.5 184.5,156.5C 183.053,155.866 182.387,154.699 182.5,153C 182.528,151.93 182.861,151.097 183.5,150.5 Z"/></g>
<g><path style="opacity:1" fill="#3f4243" d="M 184.5,148.5 C 184.167,149.167 183.833,149.833 183.5,150.5C 182.861,151.097 182.528,151.93 182.5,153C 182.387,154.699 183.053,155.866 184.5,156.5C 186.974,157.105 189.307,158.105 191.5,159.5C 191.666,163.846 191.499,168.179 191,172.5C 186.638,179.313 181.638,179.98 176,174.5C 174.727,171.511 173.561,168.511 172.5,165.5C 172.121,160.703 172.621,156.036 174,151.5C 176.689,147.581 180.189,146.581 184.5,148.5 Z"/></g>
<g><path style="opacity:1" fill="#727270" d="M 186.5,143.5 C 189.372,146.16 190.372,149.327 189.5,153C 191.013,154.879 191.679,157.046 191.5,159.5C 189.307,158.105 186.974,157.105 184.5,156.5C 185.5,156.5 186.5,156.5 187.5,156.5C 188.109,153.122 186.776,151.122 183.5,150.5C 183.833,149.833 184.167,149.167 184.5,148.5C 185.721,149.028 186.887,149.695 188,150.5C 187.888,148.203 186.722,146.536 184.5,145.5C 185.833,145.5 186.5,144.833 186.5,143.5 Z"/></g>
<g><path style="opacity:1" fill="#262729" d="M 254.5,166.5 C 254.5,164.833 254.5,163.167 254.5,161.5C 250.894,161.789 247.394,161.456 244,160.5C 242.333,163.167 240.667,163.167 239,160.5C 238.501,155.177 238.334,149.844 238.5,144.5C 240.473,143.513 242.473,142.513 244.5,141.5C 245.312,145.675 245.312,149.675 244.5,153.5C 246.348,150.522 248.348,150.188 250.5,152.5C 252.833,151.833 255.167,151.167 257.5,150.5C 258.086,150.709 258.586,151.043 259,151.5C 260.422,157.763 259.255,163.429 255.5,168.5C 254.702,168.043 254.369,167.376 254.5,166.5 Z"/></g>
<g><path style="opacity:1" fill="#61605c" d="M 95.5,150.5 C 95.9675,154.444 97.3008,158.111 99.5,161.5C 99.1373,162.183 98.8039,162.85 98.5,163.5C 97.0478,159.687 94.7144,156.354 91.5,153.5C 91.5,153.167 91.5,152.833 91.5,152.5C 93.0618,152.267 94.3951,151.6 95.5,150.5 Z"/></g>
<g><path style="opacity:1" fill="#a3a6a6" d="M 184.5,145.5 C 186.722,146.536 187.888,148.203 188,150.5C 186.887,149.695 185.721,149.028 184.5,148.5C 180.189,146.581 176.689,147.581 174,151.5C 172.621,156.036 172.121,160.703 172.5,165.5C 171.549,164.081 171.216,162.415 171.5,160.5C 169.876,160.64 168.71,159.973 168,158.5C 166.412,162.309 166.078,166.309 167,170.5C 168.678,171.466 169.345,172.799 169,174.5C 165.834,172.147 163.667,169.147 162.5,165.5C 163.15,165.804 163.817,166.137 164.5,166.5C 165.252,162.808 166.086,159.142 167,155.5C 169.688,146.262 175.521,142.929 184.5,145.5 Z"/></g>
<g><path style="opacity:1" fill="#d5cbc1" d="M 308.5,158.5 C 307.698,164.434 305.032,169.434 300.5,173.5C 299.702,173.043 299.369,172.376 299.5,171.5C 299.334,164.159 299.5,156.826 300,149.5C 301.171,148.107 302.671,147.273 304.5,147C 303.437,145.812 302.103,145.312 300.5,145.5C 300.5,142.833 300.5,140.167 300.5,137.5C 304.17,137.327 306.67,138.993 308,142.5C 308.499,147.823 308.666,153.156 308.5,158.5 Z"/></g>
<g><path style="opacity:1" fill="#252628" d="M 179.5,168.5 C 179.167,168.5 178.833,168.5 178.5,168.5C 177.178,168.67 176.011,168.337 175,167.5C 172.526,162.139 173.026,157.139 176.5,152.5C 177.325,151.614 178.325,151.281 179.5,151.5C 179.051,154.29 179.051,156.956 179.5,159.5C 180.251,158.624 180.751,157.624 181,156.5C 182,157.5 183,158.5 184,159.5C 186.538,158.069 188.372,158.736 189.5,161.5C 188.489,163.347 187.489,165.18 186.5,167C 183.964,167.186 181.631,167.686 179.5,168.5 Z"/></g>
<g><path style="opacity:1" fill="#857b66" d="M 333.5,178.5 C 333.343,179.873 333.51,181.207 334,182.5C 338.439,189.055 342.605,195.721 346.5,202.5C 338.109,192.076 330.942,180.742 325,168.5C 320.835,159.188 319.335,149.521 320.5,139.5C 321.328,144.132 321.828,148.798 322,153.5C 323.64,157.392 324.973,161.392 326,165.5C 327.503,170.519 330.003,174.852 333.5,178.5 Z"/></g>
<g><path style="opacity:1" fill="#3b4451" d="M 448.5,144.5 C 450.857,144.337 453.19,144.503 455.5,145C 459.382,149.214 462.882,153.714 466,158.5C 471.76,171.207 476.76,184.207 481,197.5C 484.184,202.53 487.851,207.196 492,211.5C 494.254,215.007 496.254,218.673 498,222.5C 504.122,242.774 507.789,263.44 509,284.5C 508.529,286.246 507.862,287.913 507,289.5C 498.713,296.397 489.546,301.897 479.5,306C 455.977,315.346 431.81,322.512 407,327.5C 405.624,327.684 404.791,328.351 404.5,329.5C 403.142,329.822 401.475,329.822 399.5,329.5C 398.167,329.5 396.833,329.5 395.5,329.5C 388.374,329.343 381.374,330.01 374.5,331.5C 372.801,331.66 371.134,331.494 369.5,331C 374.534,326.301 379.2,321.301 383.5,316C 382.833,315.333 382.167,315.333 381.5,316C 355.285,344.545 328.785,372.712 302,400.5C 300.65,404.537 298.317,407.87 295,410.5C 294.536,409.906 294.369,409.239 294.5,408.5C 290.291,388.96 287.125,369.293 285,349.5C 281.489,312.33 283.989,275.663 292.5,239.5C 294.984,237.206 297.15,234.54 299,231.5C 299.833,229.5 300.667,227.5 301.5,225.5C 302.622,226.63 303.956,227.297 305.5,227.5C 306.401,228.29 307.068,229.29 307.5,230.5C 310.599,232.308 314.099,233.641 318,234.5C 323.616,232.781 329.116,230.614 334.5,228C 342.375,225.985 350.375,225.152 358.5,225.5C 359.609,225.557 360.609,225.89 361.5,226.5C 364.232,231.232 367.898,234.898 372.5,237.5C 375.673,241.668 379.84,242.668 385,240.5C 386.876,240.525 388.376,241.191 389.5,242.5C 386.061,242.253 382.728,242.586 379.5,243.5C 377.61,243.297 376.11,243.963 375,245.5C 371.948,253.093 369.782,260.927 368.5,269C 368.305,271.352 368.972,273.352 370.5,275C 374.611,275.941 378.778,276.441 383,276.5C 393.827,275.867 404.66,275.367 415.5,275C 416.337,273.989 416.67,272.822 416.5,271.5C 417.794,264.194 419.128,257.527 420.5,251.5C 421.5,251.5 422.5,251.5 423.5,251.5C 423.552,248.654 424.552,246.32 426.5,244.5C 429.162,247.172 431.496,250.172 433.5,253.5C 431.597,259.71 429.597,265.877 427.5,272C 429.205,282.326 432.372,292.16 437,301.5C 437.472,289.828 437.972,278.162 438.5,266.5C 443.243,267.372 447.909,268.538 452.5,270C 454.046,272.257 455.712,274.424 457.5,276.5C 457.833,276.167 458.167,275.833 458.5,275.5C 449.631,265.119 440.297,255.119 430.5,245.5C 428.799,239.413 427.133,233.413 425.5,227.5C 425.235,223.147 424.735,218.813 424,214.5C 418.139,204.112 412.806,193.446 408,182.5C 405.431,176.422 403.931,170.088 403.5,163.5C 405.179,163.715 406.179,163.048 406.5,161.5C 406.5,160.833 406.833,160.5 407.5,160.5C 407.981,163.43 409.814,164.763 413,164.5C 425.036,161.902 436.536,157.736 447.5,152C 449.64,149.827 449.974,147.327 448.5,144.5 Z"/></g>
<g><path style="opacity:1" fill="#bfa89a" d="M 82.5,167.5 C 82.44,168.043 82.1067,168.376 81.5,168.5C 80.8333,167.5 80.1667,166.5 79.5,165.5C 71.6537,169.024 64.987,174.024 59.5,180.5C 58.7728,176.459 58.1061,172.459 57.5,168.5C 59.1765,167.817 59.8432,166.483 59.5,164.5C 67.1244,162.274 74.7911,160.941 82.5,160.5C 82.3688,162.899 82.3688,165.232 82.5,167.5 Z"/></g>
<g><path style="opacity:1" fill="#91887d" d="M 91.5,152.5 C 91.5,152.833 91.5,153.167 91.5,153.5C 88.7415,151.952 86.2415,152.285 84,154.5C 82.9096,157.579 83.7429,159.912 86.5,161.5C 84.7224,163.264 83.3891,165.264 82.5,167.5C 82.3688,165.232 82.3688,162.899 82.5,160.5C 74.7911,160.941 67.1244,162.274 59.5,164.5C 59.8432,166.483 59.1765,167.817 57.5,168.5C 57.5,167.167 57.5,165.833 57.5,164.5C 55.8008,164.66 54.1341,164.494 52.5,164C 47.2478,161.704 45.9144,158.204 48.5,153.5C 47.5233,149.764 48.19,149.764 50.5,153.5C 48.876,154.869 48.376,156.536 49,158.5C 50.8798,162.177 53.7131,163.177 57.5,161.5C 60.0987,157.359 60.7654,157.526 59.5,162C 64.8644,162.659 69.5311,161.159 73.5,157.5C 74.3857,158.325 74.719,159.325 74.5,160.5C 76.5914,160.682 78.5914,160.348 80.5,159.5C 80.8345,154.481 83.3345,151.148 88,149.5C 88.4412,143.527 86.9412,138.027 83.5,133C 84.9961,132.493 86.1627,132.993 87,134.5C 89.6165,140.259 91.1165,146.259 91.5,152.5 Z"/></g>
<g><path style="opacity:1" fill="#4a473a" d="M 456.5,156.5 C 458.795,155.208 460.628,155.874 462,158.5C 462.497,160.81 462.663,163.143 462.5,165.5C 460.208,165.756 458.041,165.423 456,164.5C 455.199,161.633 455.366,158.966 456.5,156.5 Z"/></g>
<g><path style="opacity:1" fill="#9a8a4b" d="M 456.5,156.5 C 460.573,157.587 462.239,160.254 461.5,164.5C 460.167,164.5 458.833,164.5 457.5,164.5C 456.908,161.873 456.575,159.206 456.5,156.5 Z"/></g>
<g><path style="opacity:1" fill="#99886e" d="M 284.5,185.5 C 282.68,207.926 279.013,229.926 273.5,251.5C 273.672,250.508 273.338,249.842 272.5,249.5C 275.956,231.708 277.622,213.708 277.5,195.5C 278.087,182.917 279.421,170.417 281.5,158C 280.941,157.275 280.608,156.442 280.5,155.5C 281.667,152.833 282.833,150.167 284,147.5C 284.5,160.162 284.667,172.829 284.5,185.5 Z"/></g>
<g><path style="opacity:1" fill="#8d9eae" d="M 253.5,166.5 C 251.857,169.495 249.523,170.161 246.5,168.5C 245.081,167.549 243.415,167.216 241.5,167.5C 241.5,166.167 241.5,164.833 241.5,163.5C 242.833,163.5 244.167,163.5 245.5,163.5C 245.351,164.552 245.517,165.552 246,166.5C 246.309,165.234 246.809,164.067 247.5,163C 249.473,162.505 251.473,162.338 253.5,162.5C 253.5,163.833 253.5,165.167 253.5,166.5 Z"/></g>
<g><path style="opacity:1" fill="#75879b" d="M 181.5,168.5 C 183.924,168.192 186.257,168.526 188.5,169.5C 186.704,171.897 184.704,173.23 182.5,173.5C 182.634,171.708 182.301,170.042 181.5,168.5 Z"/></g>
<g><path style="opacity:1" fill="#4e4f50" d="M 237.5,144.5 C 237.833,144.5 238.167,144.5 238.5,144.5C 238.334,149.844 238.501,155.177 239,160.5C 240.667,163.167 242.333,163.167 244,160.5C 247.394,161.456 250.894,161.789 254.5,161.5C 254.5,163.167 254.5,164.833 254.5,166.5C 254.167,166.5 253.833,166.5 253.5,166.5C 253.5,165.167 253.5,163.833 253.5,162.5C 251.473,162.338 249.473,162.505 247.5,163C 246.809,164.067 246.309,165.234 246,166.5C 245.517,165.552 245.351,164.552 245.5,163.5C 244.167,163.5 242.833,163.5 241.5,163.5C 241.5,164.833 241.5,166.167 241.5,167.5C 243.415,167.216 245.081,167.549 246.5,168.5C 244.952,168.821 244.285,169.821 244.5,171.5C 248.742,171.849 252.742,171.183 256.5,169.5C 255.551,172.94 253.218,174.274 249.5,173.5C 245.567,173.949 242.4,172.616 240,169.5C 236.394,161.468 235.561,153.135 237.5,144.5 Z"/></g>
<g><path style="opacity:1" fill="#d0d1d1" d="M 178.5,168.5 C 178.833,168.5 179.167,168.5 179.5,168.5C 180.167,168.5 180.833,168.5 181.5,168.5C 182.301,170.042 182.634,171.708 182.5,173.5C 181.432,174.434 180.099,174.768 178.5,174.5C 178.5,172.5 178.5,170.5 178.5,168.5 Z"/></g>
<g><path style="opacity:1" fill="#6b6b66" d="M 89.5,169.5 C 85.6796,175.993 80.3462,180.66 73.5,183.5C 76.4758,180.698 79.6425,178.031 83,175.5C 83.7542,171.911 85.9209,169.911 89.5,169.5 Z"/></g>
<g><path style="opacity:1" fill="#695645" d="M 310.5,159.5 C 308.553,165.01 306.22,170.343 303.5,175.5C 304.34,195.873 309.674,214.873 319.5,232.5C 318.348,233.625 317.348,233.625 316.5,232.5C 316.938,232.565 317.272,232.399 317.5,232C 312.51,224.852 309.01,217.019 307,208.5C 304.33,197.643 302.497,186.643 301.5,175.5C 300.914,175.709 300.414,176.043 300,176.5C 298.562,188.813 297.396,201.146 296.5,213.5C 295.833,213.5 295.167,213.5 294.5,213.5C 296.243,199.89 297.243,186.223 297.5,172.5C 298.167,172.167 298.833,171.833 299.5,171.5C 299.369,172.376 299.702,173.043 300.5,173.5C 305.032,169.434 307.698,164.434 308.5,158.5C 309.268,157.737 309.768,156.737 310,155.5C 310.49,156.793 310.657,158.127 310.5,159.5 Z"/></g>
<g><path style="opacity:1" fill="#997c64" d="M 310.5,159.5 C 310.833,159.5 311.167,159.5 311.5,159.5C 319.382,182.765 331.049,203.932 346.5,223C 349.695,223.181 352.695,223.681 355.5,224.5C 349.824,224.334 344.157,224.501 338.5,225C 332.035,227.21 325.702,229.71 319.5,232.5C 309.674,214.873 304.34,195.873 303.5,175.5C 306.22,170.343 308.553,165.01 310.5,159.5 Z"/></g>
<g><path style="opacity:1" fill="#9a8853" d="M 463.5,179.5 C 468.186,181.132 469.686,184.465 468,189.5C 467.586,189.957 467.086,190.291 466.5,190.5C 462.632,187.63 461.632,183.963 463.5,179.5 Z"/></g>
<g><path style="opacity:1" fill="#898887" d="M 26.5,181.5 C 24.9767,184.635 24.31,187.968 24.5,191.5C 35.5749,195.294 46.9082,196.294 58.5,194.5C 59.0049,191.812 60.3382,189.645 62.5,188C 66.188,186.487 69.8546,184.987 73.5,183.5C 69.9805,186.184 66.1471,188.518 62,190.5C 61.2782,193.261 61.4448,195.927 62.5,198.5C 61.8333,199.5 61.1667,200.5 60.5,201.5C 60.5,200.167 60.5,198.833 60.5,197.5C 47.0044,198.32 34.0044,196.32 21.5,191.5C 19.5784,193.687 17.9117,196.02 16.5,198.5C 16.5,197.833 16.1667,197.5 15.5,197.5C 16.9477,195.445 18.281,193.278 19.5,191C 20.448,190.517 21.448,190.351 22.5,190.5C 22.6924,186.898 24.0257,183.898 26.5,181.5 Z"/></g>
<g><path style="opacity:1" fill="#918e84" d="M 133.5,172.5 C 136.557,182.542 139.557,192.709 142.5,203C 142.43,203.765 142.097,204.265 141.5,204.5C 137.944,194.053 135.277,183.387 133.5,172.5 Z"/></g>
<g><path style="opacity:1" fill="#8d816b" d="M 154.5,245.5 C 153.834,242.642 153.167,239.642 152.5,236.5C 151.702,236.957 151.369,237.624 151.5,238.5C 150.687,236.739 149.687,235.072 148.5,233.5C 148.833,232.833 149.167,232.167 149.5,231.5C 150.117,231.611 150.617,231.944 151,232.5C 150.353,215.43 148.686,198.43 146,181.5C 145.333,175.833 145.333,170.167 146,164.5C 149.455,191.428 152.288,218.428 154.5,245.5 Z"/></g>
<g><path style="opacity:1" fill="#d4d5d5" d="M 60.5,201.5 C 60.5858,202.496 60.2524,203.329 59.5,204C 54.6158,205.574 49.6158,206.407 44.5,206.5C 39.0472,206.635 33.7139,205.968 28.5,204.5C 25.4741,203.826 22.4741,202.993 19.5,202C 17.5743,201.578 16.5743,200.411 16.5,198.5C 17.9117,196.02 19.5784,193.687 21.5,191.5C 34.0044,196.32 47.0044,198.32 60.5,197.5C 60.5,198.833 60.5,200.167 60.5,201.5 Z"/></g>
<g><path style="opacity:0.999" fill="#3b4451" d="M 15.5,197.5 C 16.1667,197.5 16.5,197.833 16.5,198.5C 16.5743,200.411 17.5743,201.578 19.5,202C 22.4741,202.993 25.4741,203.826 28.5,204.5C 33.5976,207.409 38.9309,208.075 44.5,206.5C 49.6158,206.407 54.6158,205.574 59.5,204C 60.2524,203.329 60.5858,202.496 60.5,201.5C 61.1667,200.5 61.8333,199.5 62.5,198.5C 63.8745,202.027 64.8745,205.693 65.5,209.5C 64.3168,224.269 62.3168,238.935 59.5,253.5C 59.3845,256.409 60.0512,259.075 61.5,261.5C 60.9033,261.735 60.5699,262.235 60.5,263C 64.3026,272.416 64.4692,281.916 61,291.5C 55.5,301.833 50,312.167 44.5,322.5C 45.2739,323.711 46.1072,323.711 47,322.5C 48.5557,317.72 50.8891,313.387 54,309.5C 54.9875,315.802 55.8208,322.135 56.5,328.5C 61.864,312.599 65.1973,296.266 66.5,279.5C 68.8394,281.173 70.8394,283.173 72.5,285.5C 80.8123,283.179 88.8123,280.013 96.5,276C 104.453,274.777 112.453,274.277 120.5,274.5C 118.052,275.473 115.385,275.806 112.5,275.5C 110.803,280.447 111.303,285.114 114,289.5C 121.659,299.325 130.492,307.992 140.5,315.5C 140.833,315.167 141.167,314.833 141.5,314.5C 139.667,311.5 137.833,308.5 136,305.5C 131.24,294.357 126.407,283.357 121.5,272.5C 122.673,270.496 124.34,268.996 126.5,268C 129.365,267.817 132.031,267.317 134.5,266.5C 135.5,266.167 136.167,265.5 136.5,264.5C 137.496,264.586 138.329,264.252 139,263.5C 140.438,262.1 141.271,260.433 141.5,258.5C 142.5,258.5 143.5,258.5 144.5,258.5C 144.022,255.722 145.022,253.722 147.5,252.5C 149.179,254.104 151.179,254.771 153.5,254.5C 153.194,257.385 153.527,260.052 154.5,262.5C 155.625,266.479 155.625,270.479 154.5,274.5C 148.571,299.152 143.904,324.152 140.5,349.5C 139.043,354.598 138.376,359.931 138.5,365.5C 138.167,365.5 137.833,365.5 137.5,365.5C 131.394,364.912 125.394,363.746 119.5,362C 101.833,361.667 84.1667,361.333 66.5,361C 50.7849,356.864 34.7849,354.364 18.5,353.5C 10.5303,334.92 5.19699,315.587 2.5,295.5C 2.0209,280.76 2.0209,266.093 2.5,251.5C 3.77292,247.135 3.77292,242.801 2.5,238.5C 3.65142,232.985 3.65142,227.318 2.5,221.5C 3.39695,222.598 4.23029,222.598 5,221.5C 5.16667,220 5.33333,218.5 5.5,217C 5.7145,213.795 5.04783,211.629 3.5,210.5C 4.5,210.5 5.5,210.5 6.5,210.5C 5.37267,203.038 8.37267,198.705 15.5,197.5 Z"/></g>
<g><path style="opacity:1" fill="#967a63" d="M 316.5,232.5 C 313.692,231.071 310.692,230.405 307.5,230.5C 307.068,229.29 306.401,228.29 305.5,227.5C 303.575,223.249 300.908,219.583 297.5,216.5C 296.89,215.609 296.557,214.609 296.5,213.5C 297.396,201.146 298.562,188.813 300,176.5C 300.414,176.043 300.914,175.709 301.5,175.5C 302.497,186.643 304.33,197.643 307,208.5C 309.01,217.019 312.51,224.852 317.5,232C 317.272,232.399 316.938,232.565 316.5,232.5 Z"/></g>
<g><path style="opacity:1" fill="#909397" d="M 28.5,204.5 C 33.7139,205.968 39.0472,206.635 44.5,206.5C 38.9309,208.075 33.5976,207.409 28.5,204.5 Z"/></g>
<g><path style="opacity:1" fill="#8f8479" d="M 271.5,158.5 C 271.185,162.371 271.518,166.038 272.5,169.5C 271.57,187.143 271.237,204.81 271.5,222.5C 270.833,222.833 270.167,223.167 269.5,223.5C 269.82,220.102 269.487,216.768 268.5,213.5C 258.441,223.37 247.107,231.536 234.5,238C 233.464,239.776 233.464,241.609 234.5,243.5C 233.659,244.926 232.659,246.26 231.5,247.5C 230.957,247.44 230.624,247.107 230.5,246.5C 232.104,244.821 232.771,242.821 232.5,240.5C 228.993,240.92 225.659,241.92 222.5,243.5C 222.167,242.833 221.833,242.167 221.5,241.5C 239.674,234.825 255.507,224.492 269,210.5C 269.105,192.973 269.939,175.64 271.5,158.5 Z"/></g>
<g><path style="opacity:0.824" fill="#f2f2f3" d="M 2.5,215.5 C 2.5,217.5 2.5,219.5 2.5,221.5C 3.65142,227.318 3.65142,232.985 2.5,238.5C 1.16667,242.833 1.16667,247.167 2.5,251.5C 2.0209,266.093 2.0209,280.76 2.5,295.5C 1.36873,289.518 0.368729,283.518 -0.5,277.5C -0.5,262.833 -0.5,248.167 -0.5,233.5C 0.368729,227.482 1.36873,221.482 2.5,215.5 Z"/></g>
<g><path style="opacity:1" fill="#bca493" d="M 269.5,223.5 C 260.081,234.972 249.247,244.972 237,253.5C 236.055,253.095 235.388,252.428 235,251.5C 234.503,248.854 234.336,246.187 234.5,243.5C 233.464,241.609 233.464,239.776 234.5,238C 247.107,231.536 258.441,223.37 268.5,213.5C 269.487,216.768 269.82,220.102 269.5,223.5 Z"/></g>
<g><path style="opacity:1" fill="#857d62" d="M 3.5,210.5 C 5.04783,211.629 5.7145,213.795 5.5,217C 5.33333,218.5 5.16667,220 5,221.5C 4.23029,222.598 3.39695,222.598 2.5,221.5C 2.5,219.5 2.5,217.5 2.5,215.5C 2.21552,213.585 2.54885,211.919 3.5,210.5 Z"/></g>
<g><path style="opacity:1" fill="#797569" d="M 353.5,212.5 C 360.186,220.525 366.519,228.859 372.5,237.5C 367.898,234.898 364.232,231.232 361.5,226.5C 361.938,226.565 362.272,226.399 362.5,226C 359.252,221.6 356.252,217.1 353.5,212.5 Z"/></g>
<g><path style="opacity:1" fill="#443d39" d="M 355.5,224.5 C 356.791,224.263 357.791,224.596 358.5,225.5C 350.375,225.152 342.375,225.985 334.5,228C 329.116,230.614 323.616,232.781 318,234.5C 314.099,233.641 310.599,232.308 307.5,230.5C 310.692,230.405 313.692,231.071 316.5,232.5C 317.348,233.625 318.348,233.625 319.5,232.5C 325.702,229.71 332.035,227.21 338.5,225C 344.157,224.501 349.824,224.334 355.5,224.5 Z"/></g>
<g><path style="opacity:1" fill="#967861" d="M 176.5,226.5 C 176.5,231.5 176.5,236.5 176.5,241.5C 176.387,264.908 175.387,288.241 173.5,311.5C 171.551,323.912 169.218,336.245 166.5,348.5C 166.234,341.235 166.234,334.068 166.5,327C 165.737,322.892 165.07,318.726 164.5,314.5C 164.68,313.446 165.013,312.446 165.5,311.5C 164.559,311.511 163.892,311.011 163.5,310C 163.234,302.918 163.567,295.752 164.5,288.5C 164.428,285.031 163.761,281.698 162.5,278.5C 163.068,276.631 163.734,274.797 164.5,273C 161.74,264.414 161.907,255.914 165,247.5C 165.499,241.843 165.666,236.176 165.5,230.5C 166.5,230.5 167.5,230.5 168.5,230.5C 168.5,228.5 168.5,226.5 168.5,224.5C 171.533,224.132 174.2,224.798 176.5,226.5 Z"/></g>
<g><path style="opacity:1" fill="#313439" d="M 297.5,216.5 C 300.908,219.583 303.575,223.249 305.5,227.5C 303.956,227.297 302.622,226.63 301.5,225.5C 300.667,227.5 299.833,229.5 299,231.5C 297.15,234.54 294.984,237.206 292.5,239.5C 292.91,232.126 293.744,224.793 295,217.5C 295.671,216.748 296.504,216.414 297.5,216.5 Z"/></g>
<g><path style="opacity:1" fill="#977b64" d="M 195.5,244.5 C 190.19,242.21 184.857,239.877 179.5,237.5C 178.389,232.584 178.222,227.584 179,222.5C 184.667,225.833 190.333,229.167 196,232.5C 196.357,236.51 196.19,240.51 195.5,244.5 Z"/></g>
<g><path style="opacity:1" fill="#6c625a" d="M 271.5,222.5 C 271.161,232.891 271.494,241.891 272.5,249.5C 273.338,249.842 273.672,250.508 273.5,251.5C 273.737,252.791 273.404,253.791 272.5,254.5C 272.167,253.5 271.5,252.833 270.5,252.5C 270.831,243.808 270.498,235.141 269.5,226.5C 257.53,239.5 244.53,250.834 230.5,260.5C 229.833,260.5 229.167,260.5 228.5,260.5C 228.629,256.515 230.463,255.182 234,256.5C 234.097,253.284 233.264,250.284 231.5,247.5C 232.659,246.26 233.659,244.926 234.5,243.5C 234.336,246.187 234.503,248.854 235,251.5C 235.388,252.428 236.055,253.095 237,253.5C 249.247,244.972 260.081,234.972 269.5,223.5C 270.167,223.167 270.833,222.833 271.5,222.5 Z"/></g>
<g><path style="opacity:1" fill="#6e5b4b" d="M 177.5,219.5 C 189.88,227.023 202.547,234.023 215.5,240.5C 214.041,240.433 212.708,240.766 211.5,241.5C 207.993,237.908 203.659,235.575 198.5,234.5C 198.451,238.078 197.785,241.411 196.5,244.5C 196.167,244.5 195.833,244.5 195.5,244.5C 196.19,240.51 196.357,236.51 196,232.5C 190.333,229.167 184.667,225.833 179,222.5C 178.222,227.584 178.389,232.584 179.5,237.5C 178.022,238.448 177.022,239.781 176.5,241.5C 176.5,236.5 176.5,231.5 176.5,226.5C 176.5,224.5 176.5,222.5 176.5,220.5C 176.5,219.833 176.833,219.5 177.5,219.5 Z"/></g>
<g><path style="opacity:1" fill="#585952" d="M 149.5,231.5 C 149.167,232.167 148.833,232.833 148.5,233.5C 144.962,240.236 141.129,246.903 137,253.5C 135.393,257.259 135.226,260.926 136.5,264.5C 136.167,265.5 135.5,266.167 134.5,266.5C 133.071,260.251 133.904,254.251 137,248.5C 141.121,243.251 144.455,237.585 147,231.5C 147.388,228.151 147.221,224.817 146.5,221.5C 147.995,223.996 148.995,227.329 149.5,231.5 Z"/></g>
<g><path style="opacity:1" fill="#a6a6a6" d="M 270.5,252.5 C 267.353,261.802 263.353,270.802 258.5,279.5C 255.316,275.132 252.649,270.465 250.5,265.5C 249.288,262.121 247.455,259.121 245,256.5C 241.959,259.042 239.459,262.042 237.5,265.5C 235.599,266.231 233.599,266.231 231.5,265.5C 231.371,263.784 231.038,262.117 230.5,260.5C 244.53,250.834 257.53,239.5 269.5,226.5C 270.498,235.141 270.831,243.808 270.5,252.5 Z"/></g>
<g><path style="opacity:1" fill="#937965" d="M 211.5,241.5 C 207.086,244.527 202.086,246.194 196.5,246.5C 196.5,245.833 196.5,245.167 196.5,244.5C 197.785,241.411 198.451,238.078 198.5,234.5C 203.659,235.575 207.993,237.908 211.5,241.5 Z"/></g>
<g><path style="opacity:1" fill="#c7bca3" d="M 148.5,233.5 C 149.687,235.072 150.687,236.739 151.5,238.5C 151.66,240.199 151.494,241.866 151,243.5C 145.166,249.83 140.332,256.83 136.5,264.5C 135.226,260.926 135.393,257.259 137,253.5C 141.129,246.903 144.962,240.236 148.5,233.5 Z"/></g>
<g><path style="opacity:1" fill="#655e61" d="M 424.5,237.5 C 425.566,239.701 426.233,242.035 426.5,244.5C 424.552,246.32 423.552,248.654 423.5,251.5C 422.5,251.5 421.5,251.5 420.5,251.5C 419.128,257.527 417.794,264.194 416.5,271.5C 416.318,260.387 418.985,250.054 424.5,240.5C 422.561,239.366 420.895,239.7 419.5,241.5C 414.618,241.175 411.118,243.175 409,247.5C 407.51,253.449 406.344,259.449 405.5,265.5C 403.265,265.795 401.265,265.461 399.5,264.5C 401.451,264.773 402.951,264.107 404,262.5C 404.913,256.172 406.746,250.172 409.5,244.5C 408.386,243.224 407.386,243.224 406.5,244.5C 401.228,243.6 395.895,243.267 390.5,243.5C 390.5,243.167 390.5,242.833 390.5,242.5C 402.255,243.282 413.588,241.615 424.5,237.5 Z"/></g>
<g><path style="opacity:1" fill="#7d7b6a" d="M 2.5,238.5 C 3.77292,242.801 3.77292,247.135 2.5,251.5C 1.16667,247.167 1.16667,242.833 2.5,238.5 Z"/></g>
<g><path style="opacity:1" fill="#a2a2a3" d="M 231.5,247.5 C 233.264,250.284 234.097,253.284 234,256.5C 230.463,255.182 228.629,256.515 228.5,260.5C 226.307,263.418 225.307,266.752 225.5,270.5C 223.705,273.404 221.872,276.404 220,279.5C 219.329,280.252 218.496,280.586 217.5,280.5C 217.287,270.463 217.787,260.463 219,250.5C 219.133,247.596 220.3,245.262 222.5,243.5C 225.659,241.92 228.993,240.92 232.5,240.5C 232.771,242.821 232.104,244.821 230.5,246.5C 230.624,247.107 230.957,247.44 231.5,247.5 Z"/></g>
<g><path style="opacity:1" fill="#4c4c4c" d="M 154.5,245.5 C 154.5,251.167 154.5,256.833 154.5,262.5C 153.527,260.052 153.194,257.385 153.5,254.5C 151.179,254.771 149.179,254.104 147.5,252.5C 145.022,253.722 144.022,255.722 144.5,258.5C 143.5,258.5 142.5,258.5 141.5,258.5C 141.271,260.433 140.438,262.1 139,263.5C 138.329,264.252 137.496,264.586 136.5,264.5C 140.332,256.83 145.166,249.83 151,243.5C 151.494,241.866 151.66,240.199 151.5,238.5C 151.369,237.624 151.702,236.957 152.5,236.5C 153.167,239.642 153.834,242.642 154.5,245.5 Z"/></g>
<g><path style="opacity:1" fill="#9a8268" d="M 158.5,174.5 C 161.233,181.454 162.733,188.787 163,196.5C 164.805,206.147 169.305,214.147 176.5,220.5C 176.5,222.5 176.5,224.5 176.5,226.5C 174.2,224.798 171.533,224.132 168.5,224.5C 168.5,226.5 168.5,228.5 168.5,230.5C 167.5,230.5 166.5,230.5 165.5,230.5C 165.666,236.176 165.499,241.843 165,247.5C 161.907,255.914 161.74,264.414 164.5,273C 163.734,274.797 163.068,276.631 162.5,278.5C 163.761,281.698 164.428,285.031 164.5,288.5C 163.567,295.752 163.234,302.918 163.5,310C 163.892,311.011 164.559,311.511 165.5,311.5C 165.013,312.446 164.68,313.446 164.5,314.5C 165.07,318.726 165.737,322.892 166.5,327C 166.234,334.068 166.234,341.235 166.5,348.5C 166.5,349.833 166.5,351.167 166.5,352.5C 164.249,347.855 162.749,342.855 162,337.5C 161.333,331.5 160.667,325.5 160,319.5C 159.756,271.16 159.256,222.827 158.5,174.5 Z"/></g>
<g><path style="opacity:1" fill="#3b4350" d="M 192.5,245.5 C 193.172,246.267 194.005,246.934 195,247.5C 195.087,253.879 196.254,260.046 198.5,266C 195.204,275.901 191.537,285.567 187.5,295C 187.858,297.032 188.692,298.866 190,300.5C 193.605,303.432 196.439,306.932 198.5,311C 195.43,316.076 191.597,320.576 187,324.5C 186.333,326.833 186.333,329.167 187,331.5C 190.003,344.176 194.003,356.51 199,368.5C 204.799,379.937 210.966,391.103 217.5,402C 217.079,404.185 216.579,406.351 216,408.5C 212.591,409.622 209.091,409.789 205.5,409C 199.672,406.202 193.672,403.869 187.5,402C 185,401.5 182.5,401 180,400.5C 178.624,400.684 177.791,401.351 177.5,402.5C 175.981,396.379 174.981,390.046 174.5,383.5C 175.5,335.477 177.167,287.477 179.5,239.5C 183.709,241.771 188.042,243.771 192.5,245.5 Z"/></g>
<g><path style="opacity:1" fill="#2a3039" d="M 425.5,227.5 C 427.133,233.413 428.799,239.413 430.5,245.5C 440.297,255.119 449.631,265.119 458.5,275.5C 458.167,275.833 457.833,276.167 457.5,276.5C 455.712,274.424 454.046,272.257 452.5,270C 447.909,268.538 443.243,267.372 438.5,266.5C 437.972,278.162 437.472,289.828 437,301.5C 432.372,292.16 429.205,282.326 427.5,272C 429.597,265.877 431.597,259.71 433.5,253.5C 431.496,250.172 429.162,247.172 426.5,244.5C 426.233,242.035 425.566,239.701 424.5,237.5C 425.479,234.375 425.813,231.042 425.5,227.5 Z"/></g>
<g><path style="opacity:1" fill="#d3776e" d="M 419.5,241.5 C 415.303,248.942 412.636,256.942 411.5,265.5C 410.691,266.469 409.691,267.302 408.5,268C 397.21,269.326 385.877,269.826 374.5,269.5C 374.887,263.395 375.887,257.395 377.5,251.5C 377.694,248.67 378.361,246.004 379.5,243.5C 382.728,242.586 386.061,242.253 389.5,242.5C 389.833,242.5 390.167,242.5 390.5,242.5C 390.5,242.833 390.5,243.167 390.5,243.5C 388.965,245.806 387.798,248.139 387,250.5C 389.44,251.656 391.94,251.656 394.5,250.5C 395.672,250.919 396.672,251.585 397.5,252.5C 398.731,251.349 398.731,250.183 397.5,249C 394.764,248.578 392.098,248.578 389.5,249C 392.563,246.62 395.896,246.12 399.5,247.5C 400.386,246.675 400.719,245.675 400.5,244.5C 401.5,244.5 402.5,244.5 403.5,244.5C 401.001,250.831 399.001,257.331 397.5,264C 397.645,264.772 397.978,265.439 398.5,266C 401.039,266.796 403.372,266.629 405.5,265.5C 406.344,259.449 407.51,253.449 409,247.5C 411.118,243.175 414.618,241.175 419.5,241.5 Z"/></g>
<g><path style="opacity:1" fill="#8c8578" d="M 154.5,245.5 C 155.024,250.799 156.024,256.133 157.5,261.5C 157.064,266.099 156.064,270.432 154.5,274.5C 155.625,270.479 155.625,266.479 154.5,262.5C 154.5,256.833 154.5,251.167 154.5,245.5 Z"/></g>
<g><path style="opacity:1" fill="#465564" d="M 250.5,265.5 C 247.499,268.332 244.333,270.998 241,273.5C 240.333,275.167 240.333,276.833 241,278.5C 242.652,281.508 244.152,284.508 245.5,287.5C 245.833,287.5 246.167,287.5 246.5,287.5C 247.358,290.907 248.525,294.24 250,297.5C 250.383,296.944 250.883,296.611 251.5,296.5C 251.096,297.756 250.429,298.923 249.5,300C 251.55,305.939 252.05,312.105 251,318.5C 250.066,319.858 249.232,321.192 248.5,322.5C 250.215,310.796 248.882,299.463 244.5,288.5C 243.5,289.167 242.5,289.833 241.5,290.5C 240.668,298.813 240.168,307.147 240,315.5C 239.213,308.845 238.547,302.179 238,295.5C 236.091,294.668 234.258,295.001 232.5,296.5C 232.167,296.5 231.833,296.5 231.5,296.5C 232.061,293.718 232.394,290.884 232.5,288C 231.833,284.333 231.167,280.667 230.5,277C 230.039,273.16 231.039,269.827 233.5,267C 230.807,267.84 228.14,269.007 225.5,270.5C 225.307,266.752 226.307,263.418 228.5,260.5C 229.167,260.5 229.833,260.5 230.5,260.5C 231.038,262.117 231.371,263.784 231.5,265.5C 233.599,266.231 235.599,266.231 237.5,265.5C 239.459,262.042 241.959,259.042 245,256.5C 247.455,259.121 249.288,262.121 250.5,265.5 Z"/></g>
<g><path style="opacity:1" fill="#483e38" d="M 179.5,237.5 C 184.857,239.877 190.19,242.21 195.5,244.5C 195.833,244.5 196.167,244.5 196.5,244.5C 196.5,245.167 196.5,245.833 196.5,246.5C 195.292,245.766 193.959,245.433 192.5,245.5C 188.042,243.771 183.709,241.771 179.5,239.5C 177.167,287.477 175.5,335.477 174.5,383.5C 173.004,377.395 172.337,371.062 172.5,364.5C 173.266,350.172 173.933,335.839 174.5,321.5C 173.676,318.236 173.342,314.902 173.5,311.5C 175.387,288.241 176.387,264.908 176.5,241.5C 177.022,239.781 178.022,238.448 179.5,237.5 Z"/></g>
<g><path style="opacity:1" fill="#e2dce0" d="M 416.5,271.5 C 416.67,272.822 416.337,273.989 415.5,275C 404.66,275.367 393.827,275.867 383,276.5C 378.778,276.441 374.611,275.941 370.5,275C 368.972,273.352 368.305,271.352 368.5,269C 369.782,260.927 371.948,253.093 375,245.5C 376.11,243.963 377.61,243.297 379.5,243.5C 378.361,246.004 377.694,248.67 377.5,251.5C 374.142,257.294 372.809,263.628 373.5,270.5C 385.88,270.87 398.214,270.37 410.5,269C 411.337,267.989 411.67,266.822 411.5,265.5C 412.636,256.942 415.303,248.942 419.5,241.5C 420.895,239.7 422.561,239.366 424.5,240.5C 418.985,250.054 416.318,260.387 416.5,271.5 Z"/></g>
<g><path style="opacity:1" fill="#d59f9d" d="M 377.5,251.5 C 375.887,257.395 374.887,263.395 374.5,269.5C 385.877,269.826 397.21,269.326 408.5,268C 409.691,267.302 410.691,266.469 411.5,265.5C 411.67,266.822 411.337,267.989 410.5,269C 398.214,270.37 385.88,270.87 373.5,270.5C 372.809,263.628 374.142,257.294 377.5,251.5 Z"/></g>
<g><path style="opacity:1" fill="#974d44" d="M 389.5,255.5 C 390.568,254.566 391.901,254.232 393.5,254.5C 393.5,256.167 393.5,257.833 393.5,259.5C 392.167,259.5 390.833,259.5 389.5,259.5C 389.5,261.167 389.5,262.833 389.5,264.5C 391.429,264.231 393.095,264.731 394.5,266C 390.833,266.667 387.167,266.667 383.5,266C 382.941,265.275 382.608,264.442 382.5,263.5C 383.065,261.595 384.065,259.929 385.5,258.5C 383.833,256.833 384.167,255.833 386.5,255.5C 387.672,255.919 388.672,256.585 389.5,257.5C 390.773,256.743 390.773,256.077 389.5,255.5 Z"/></g>
<g><path style="opacity:1" fill="#96564e" d="M 390.5,243.5 C 395.895,243.267 401.228,243.6 406.5,244.5C 402.946,250.702 400.613,257.369 399.5,264.5C 401.265,265.461 403.265,265.795 405.5,265.5C 403.372,266.629 401.039,266.796 398.5,266C 397.978,265.439 397.645,264.772 397.5,264C 399.001,257.331 401.001,250.831 403.5,244.5C 402.5,244.5 401.5,244.5 400.5,244.5C 400.719,245.675 400.386,246.675 399.5,247.5C 395.896,246.12 392.563,246.62 389.5,249C 392.098,248.578 394.764,248.578 397.5,249C 398.731,250.183 398.731,251.349 397.5,252.5C 396.672,251.585 395.672,250.919 394.5,250.5C 391.94,251.656 389.44,251.656 387,250.5C 387.798,248.139 388.965,245.806 390.5,243.5 Z"/></g>
<g><path style="opacity:1" fill="#e1dee1" d="M 399.5,264.5 C 400.613,257.369 402.946,250.702 406.5,244.5C 407.386,243.224 408.386,243.224 409.5,244.5C 406.746,250.172 404.913,256.172 404,262.5C 402.951,264.107 401.451,264.773 399.5,264.5 Z"/></g>
<g><path style="opacity:1" fill="#2a2f37" d="M 121.5,272.5 C 126.407,283.357 131.24,294.357 136,305.5C 137.833,308.5 139.667,311.5 141.5,314.5C 141.167,314.833 140.833,315.167 140.5,315.5C 130.492,307.992 121.659,299.325 114,289.5C 111.303,285.114 110.803,280.447 112.5,275.5C 115.385,275.806 118.052,275.473 120.5,274.5C 120.833,273.833 121.167,273.167 121.5,272.5 Z"/></g>
<g><path style="opacity:1" fill="#d2d2d3" d="M 255.5,278.5 C 256.289,279.915 256.956,281.415 257.5,283C 255.351,287.463 253.351,291.963 251.5,296.5C 250.883,296.611 250.383,296.944 250,297.5C 248.525,294.24 247.358,290.907 246.5,287.5C 248.5,283.5 251.5,280.5 255.5,278.5 Z"/></g>
<g><path style="opacity:1" fill="#4a4f56" d="M 270.5,252.5 C 271.5,252.833 272.167,253.5 272.5,254.5C 269.815,269.29 267.148,283.957 264.5,298.5C 264.412,293.464 263.912,288.464 263,283.5C 261.212,285.004 260.712,286.671 261.5,288.5C 256.864,289.754 254.031,292.754 253,297.5C 252.617,296.944 252.117,296.611 251.5,296.5C 253.351,291.963 255.351,287.463 257.5,283C 256.956,281.415 256.289,279.915 255.5,278.5C 253.86,275.218 251.86,272.218 249.5,269.5C 246.716,270.786 244.383,272.619 242.5,275C 244.227,279.01 245.227,283.177 245.5,287.5C 244.152,284.508 242.652,281.508 241,278.5C 240.333,276.833 240.333,275.167 241,273.5C 244.333,270.998 247.499,268.332 250.5,265.5C 252.649,270.465 255.316,275.132 258.5,279.5C 263.353,270.802 267.353,261.802 270.5,252.5 Z"/></g>
<g><path style="opacity:1" fill="#a4a5a6" d="M 255.5,278.5 C 251.5,280.5 248.5,283.5 246.5,287.5C 246.167,287.5 245.833,287.5 245.5,287.5C 245.227,283.177 244.227,279.01 242.5,275C 244.383,272.619 246.716,270.786 249.5,269.5C 251.86,272.218 253.86,275.218 255.5,278.5 Z"/></g>
<g><path style="opacity:1" fill="#2b3039" d="M 61.5,261.5 C 64.2225,267.108 65.8892,273.108 66.5,279.5C 65.1973,296.266 61.864,312.599 56.5,328.5C 55.8208,322.135 54.9875,315.802 54,309.5C 50.8891,313.387 48.5557,317.72 47,322.5C 46.1072,323.711 45.2739,323.711 44.5,322.5C 50,312.167 55.5,301.833 61,291.5C 64.4692,281.916 64.3026,272.416 60.5,263C 60.5699,262.235 60.9033,261.735 61.5,261.5 Z"/></g>
<g><path style="opacity:1" fill="#5c7178" d="M 231.5,296.5 C 231.833,296.5 232.167,296.5 232.5,296.5C 232.503,310.535 233.17,324.535 234.5,338.5C 233.833,337.167 233.167,335.833 232.5,334.5C 231.722,324.835 230.889,315.169 230,305.5C 226.988,322.977 223.822,340.31 220.5,357.5C 220.737,356.209 220.404,355.209 219.5,354.5C 220.51,347.931 221.843,341.431 223.5,335C 223.333,334.167 223.167,333.333 223,332.5C 221.084,334.022 218.917,335.022 216.5,335.5C 216.782,334.222 217.449,333.222 218.5,332.5C 219.675,332.719 220.675,332.386 221.5,331.5C 224.738,322.249 227.072,312.749 228.5,303C 228.392,301.319 227.725,300.152 226.5,299.5C 227.209,298.596 228.209,298.263 229.5,298.5C 229.215,300.288 229.548,301.955 230.5,303.5C 231.474,301.257 231.808,298.924 231.5,296.5 Z"/></g>
<g><path style="opacity:1" fill="#60737b" d="M 223.5,301.5 C 223.438,307.368 221.438,312.368 217.5,316.5C 216.265,311.147 216.265,305.813 217.5,300.5C 218.167,300.5 218.833,300.5 219.5,300.5C 220.314,296.558 221.814,292.891 224,289.5C 223.922,292.667 223.422,295.834 222.5,299C 222.528,300.07 222.861,300.903 223.5,301.5 Z"/></g>
<g><path style="opacity:1" fill="#749eab" d="M 217.5,300.5 C 216.265,305.813 216.265,311.147 217.5,316.5C 221.438,312.368 223.438,307.368 223.5,301.5C 223.821,299.952 224.821,299.285 226.5,299.5C 227.725,300.152 228.392,301.319 228.5,303C 227.072,312.749 224.738,322.249 221.5,331.5C 220.675,332.386 219.675,332.719 218.5,332.5C 213.263,324.676 210.263,316.009 209.5,306.5C 208.531,298.93 211.197,296.93 217.5,300.5 Z"/></g>
<g><path style="opacity:1" fill="#c9cdd0" d="M 219.5,300.5 C 220.586,300.62 221.253,301.287 221.5,302.5C 220.787,306.366 219.62,310.032 218,313.5C 217.799,309.077 218.299,304.744 219.5,300.5 Z"/></g>
<g><path style="opacity:1" fill="#585349" d="M 294.5,213.5 C 295.167,213.5 295.833,213.5 296.5,213.5C 296.557,214.609 296.89,215.609 297.5,216.5C 296.504,216.414 295.671,216.748 295,217.5C 293.744,224.793 292.91,232.126 292.5,239.5C 283.989,275.663 281.489,312.33 285,349.5C 287.125,369.293 290.291,388.96 294.5,408.5C 293.662,408.842 293.328,409.508 293.5,410.5C 290.354,393.642 287.188,376.642 284,359.5C 282.959,343.844 282.126,328.177 281.5,312.5C 283.136,279.143 287.469,246.143 294.5,213.5 Z"/></g>
<g><path style="opacity:1" fill="#3b4451" d="M 231.5,296.5 C 231.808,298.924 231.474,301.257 230.5,303.5C 229.548,301.955 229.215,300.288 229.5,298.5C 228.209,298.263 227.209,298.596 226.5,299.5C 224.821,299.285 223.821,299.952 223.5,301.5C 222.861,300.903 222.528,300.07 222.5,299C 223.422,295.834 223.922,292.667 224,289.5C 221.814,292.891 220.314,296.558 219.5,300.5C 218.833,300.5 218.167,300.5 217.5,300.5C 211.197,296.93 208.531,298.93 209.5,306.5C 210.263,316.009 213.263,324.676 218.5,332.5C 217.449,333.222 216.782,334.222 216.5,335.5C 213.785,347.016 212.951,358.682 214,370.5C 215.686,374.448 217.186,374.448 218.5,370.5C 220.056,381.129 221.723,391.796 223.5,402.5C 223.518,404.373 223.018,404.706 222,403.5C 204.361,379.91 193.361,353.577 189,324.5C 193.597,320.576 197.43,316.076 200.5,311C 197.598,306.026 194.098,301.526 190,297.5C 189.833,296.667 189.667,295.833 189.5,295C 193.795,287.365 196.962,279.199 199,270.5C 199.333,270.167 199.667,269.833 200,269.5C 201.667,274.833 203.333,280.167 205,285.5C 206.211,288.759 208.044,291.592 210.5,294C 211.996,294.507 213.163,294.007 214,292.5C 215.579,289.006 217.413,285.673 219.5,282.5C 218.757,281.818 218.091,281.151 217.5,280.5C 218.496,280.586 219.329,280.252 220,279.5C 221.872,276.404 223.705,273.404 225.5,270.5C 228.14,269.007 230.807,267.84 233.5,267C 231.039,269.827 230.039,273.16 230.5,277C 231.167,280.667 231.833,284.333 232.5,288C 232.394,290.884 232.061,293.718 231.5,296.5 Z"/></g>
<g><path style="opacity:1" fill="#739eab" d="M 248.5,322.5 C 247.063,326.667 244.063,328.667 239.5,328.5C 239.816,342.912 239.482,357.245 238.5,371.5C 237.609,372.11 236.609,372.443 235.5,372.5C 235.5,372.167 235.5,371.833 235.5,371.5C 234.791,360.514 234.457,349.514 234.5,338.5C 233.17,324.535 232.503,310.535 232.5,296.5C 234.258,295.001 236.091,294.668 238,295.5C 238.547,302.179 239.213,308.845 240,315.5C 240.168,307.147 240.668,298.813 241.5,290.5C 242.5,289.833 243.5,289.167 244.5,288.5C 248.882,299.463 250.215,310.796 248.5,322.5 Z"/></g>
<g><path style="opacity:1" fill="#3b393c" d="M 395.5,329.5 C 389.379,330.926 383.046,331.926 376.5,332.5C 372.703,337.891 370.703,343.891 370.5,350.5C 369.732,352.715 369.065,355.048 368.5,357.5C 367.518,360.763 366.851,364.097 366.5,367.5C 365.136,371.619 363.469,375.619 361.5,379.5C 365.258,363.707 369.258,348.04 373.5,332.5C 374.167,332.5 374.5,332.167 374.5,331.5C 381.374,330.01 388.374,329.343 395.5,329.5 Z"/></g>
<g><path style="opacity:1" fill="#5f4c3c" d="M 173.5,311.5 C 173.342,314.902 173.676,318.236 174.5,321.5C 171.365,333.182 169.199,345.182 168,357.5C 166.893,358.712 166.393,358.379 166.5,356.5C 166.5,355.167 166.5,353.833 166.5,352.5C 166.5,351.167 166.5,349.833 166.5,348.5C 169.218,336.245 171.551,323.912 173.5,311.5 Z"/></g>
<g><path style="opacity:1" fill="#cacbcc" d="M 232.5,334.5 C 227.614,344.331 223.78,354.664 221,365.5C 220.503,362.854 220.336,360.187 220.5,357.5C 223.822,340.31 226.988,322.977 230,305.5C 230.889,315.169 231.722,324.835 232.5,334.5 Z"/></g>
<g><path style="opacity:1" fill="#977962" d="M 395.5,329.5 C 396.833,329.5 398.167,329.5 399.5,329.5C 398.602,330.158 397.602,330.824 396.5,331.5C 398.969,339.456 399.969,347.623 399.5,356C 400.234,365.491 398.901,374.658 395.5,383.5C 395.863,384.183 396.196,384.85 396.5,385.5C 395.299,387.909 393.633,389.909 391.5,391.5C 389.983,391.489 388.816,390.823 388,389.5C 382.589,378.343 376.922,367.343 371,356.5C 370.505,354.527 370.338,352.527 370.5,350.5C 370.703,343.891 372.703,337.891 376.5,332.5C 383.046,331.926 389.379,330.926 395.5,329.5 Z"/></g>
<g><path style="opacity:1" fill="#c8bba1" d="M 399.5,329.5 C 401.475,329.822 403.142,329.822 404.5,329.5C 406.126,336.615 407.126,343.948 407.5,351.5C 406.364,358.833 404.697,366.166 402.5,373.5C 401.54,378.086 399.54,382.086 396.5,385.5C 396.196,384.85 395.863,384.183 395.5,383.5C 398.901,374.658 400.234,365.491 399.5,356C 399.969,347.623 398.969,339.456 396.5,331.5C 397.602,330.824 398.602,330.158 399.5,329.5 Z"/></g>
<g><path style="opacity:1" fill="#729daa" d="M 219.5,354.5 C 219.313,359.845 218.98,365.178 218.5,370.5C 217.186,374.448 215.686,374.448 214,370.5C 212.951,358.682 213.785,347.016 216.5,335.5C 218.917,335.022 221.084,334.022 223,332.5C 223.167,333.333 223.333,334.167 223.5,335C 221.843,341.431 220.51,347.931 219.5,354.5 Z"/></g>
<g><path style="opacity:1" fill="#3e4753" d="M 232.5,334.5 C 233.167,335.833 233.833,337.167 234.5,338.5C 234.457,349.514 234.791,360.514 235.5,371.5C 234.849,370.909 234.182,370.243 233.5,369.5C 230,373.167 226.5,376.833 223,380.5C 222.036,376.204 221.203,371.87 220.5,367.5C 219.824,368.602 219.158,369.602 218.5,370.5C 218.98,365.178 219.313,359.845 219.5,354.5C 220.404,355.209 220.737,356.209 220.5,357.5C 220.336,360.187 220.503,362.854 221,365.5C 223.78,354.664 227.614,344.331 232.5,334.5 Z"/></g>
<g><path style="opacity:0.987" fill="#fefefe" d="M 18.5,353.5 C 34.7849,354.364 50.7849,356.864 66.5,361C 84.1667,361.333 101.833,361.667 119.5,362C 125.394,363.746 131.394,364.912 137.5,365.5C 137,372.486 136.667,379.486 136.5,386.5C 136.357,394.057 137.024,401.39 138.5,408.5C 138.5,409.5 138.5,410.5 138.5,411.5C 139.783,426.241 143.45,440.241 149.5,453.5C 149.5,454.167 149.5,454.833 149.5,455.5C 148.649,466.484 147.982,477.484 147.5,488.5C 87.7719,459.44 44.7719,414.44 18.5,353.5 Z"/></g>
<g><path style="opacity:1" fill="#2c323d" d="M 94.5,327.5 C 95.8734,327.343 97.2068,327.51 98.5,328C 109.565,339.397 121.565,349.73 134.5,359C 135.451,359.718 135.617,360.551 135,361.5C 124.256,353.212 113.423,345.045 102.5,337C 99.2232,334.234 96.5566,331.067 94.5,327.5 Z"/></g>
<g><path style="opacity:1" fill="#3d4652" d="M 264.5,298.5 C 260.839,323.467 257.505,348.467 254.5,373.5C 252.999,380.27 252.333,387.27 252.5,394.5C 252.501,399.346 252.834,404.012 253.5,408.5C 253.052,424.167 256.552,438.833 264,452.5C 268.119,459.642 274.286,463.308 282.5,463.5C 281.398,465.092 282.065,465.925 284.5,466C 283.663,467.011 283.33,468.178 283.5,469.5C 279.976,469.071 276.976,467.571 274.5,465C 271.081,464.479 267.748,463.645 264.5,462.5C 261.896,460.793 261.23,458.626 262.5,456C 261.421,455.044 260.255,454.211 259,453.5C 256.094,444.014 253.594,434.348 251.5,424.5C 250.937,421.824 249.604,419.658 247.5,418C 248.285,415.958 247.952,413.958 246.5,412C 247.167,411.667 247.833,411.333 248.5,411C 245.475,407.73 244.808,404.23 246.5,400.5C 244.341,393.903 244.007,387.237 245.5,380.5C 245.062,379.494 244.396,379.494 243.5,380.5C 242.167,378.5 242.167,376.5 243.5,374.5C 244.281,375.729 244.781,377.062 245,378.5C 246.14,376.922 246.64,375.256 246.5,373.5C 245.311,372.571 243.978,372.238 242.5,372.5C 242.649,371.448 242.483,370.448 242,369.5C 240.615,370.551 239.615,371.884 239,373.5C 238.536,372.906 238.369,372.239 238.5,371.5C 239.482,357.245 239.816,342.912 239.5,328.5C 244.063,328.667 247.063,326.667 248.5,322.5C 249.232,321.192 250.066,319.858 251,318.5C 252.05,312.105 251.55,305.939 249.5,300C 250.429,298.923 251.096,297.756 251.5,296.5C 252.117,296.611 252.617,296.944 253,297.5C 254.031,292.754 256.864,289.754 261.5,288.5C 260.712,286.671 261.212,285.004 263,283.5C 263.912,288.464 264.412,293.464 264.5,298.5 Z"/></g>
<g><path style="opacity:1" fill="#8e897d" d="M 140.5,349.5 C 140.473,355.051 139.806,360.384 138.5,365.5C 138.376,359.931 139.043,354.598 140.5,349.5 Z"/></g>
<g><path style="opacity:1" fill="#95765f" d="M 368.5,357.5 C 376.929,371.353 384.595,385.687 391.5,400.5C 390.903,400.735 390.57,401.235 390.5,402C 395.043,424.64 396.376,447.474 394.5,470.5C 394.167,471.5 393.5,472.167 392.5,472.5C 392.5,471.167 392.5,469.833 392.5,468.5C 393.833,466.833 393.833,465.167 392.5,463.5C 388.015,449.188 383.515,434.854 379,420.5C 378.261,418.779 377.427,417.113 376.5,415.5C 376.167,416 375.833,416.5 375.5,417C 378.897,426.105 381.897,435.272 384.5,444.5C 384.643,446.262 384.309,447.929 383.5,449.5C 384.414,451.629 385.414,453.796 386.5,456C 386.108,457.011 385.441,457.511 384.5,457.5C 385.48,458.981 386.647,460.315 388,461.5C 388.894,466.377 388.728,468.044 387.5,466.5C 384.175,467.177 381.008,467.177 378,466.5C 376.671,467.494 375.338,468.494 374,469.5C 370.397,468.067 366.897,466.401 363.5,464.5C 362.808,465.025 362.308,465.692 362,466.5C 361.349,464.765 361.515,463.098 362.5,461.5C 360.131,458.887 359.131,456.053 359.5,453C 358.992,447.588 357.992,442.254 356.5,437C 358.098,435.274 357.765,434.441 355.5,434.5C 353.258,423.386 354.424,412.72 359,402.5C 361.932,390.898 364.432,379.231 366.5,367.5C 366.851,364.097 367.518,360.763 368.5,357.5 Z"/></g>
<g><path style="opacity:1" fill="#777062" d="M 407.5,351.5 C 407.93,358.01 407.097,364.344 405,370.5C 404.623,371.942 403.79,372.942 402.5,373.5C 404.697,366.166 406.364,358.833 407.5,351.5 Z"/></g>
<g><path style="opacity:1" fill="#5d493a" d="M 370.5,350.5 C 370.338,352.527 370.505,354.527 371,356.5C 376.922,367.343 382.589,378.343 388,389.5C 388.816,390.823 389.983,391.489 391.5,391.5C 391.322,392.695 390.989,393.862 390.5,395C 393.592,401.013 396.258,407.18 398.5,413.5C 398.5,414.167 398.167,414.5 397.5,414.5C 395.695,409.751 393.695,405.085 391.5,400.5C 384.595,385.687 376.929,371.353 368.5,357.5C 369.065,355.048 369.732,352.715 370.5,350.5 Z"/></g>
<g><path style="opacity:1" fill="#928871" d="M 262.5,392.5 C 262.167,392.5 261.833,392.5 261.5,392.5C 260.778,392.082 260.278,391.416 260,390.5C 259.578,382.662 259.078,374.828 258.5,367C 258.833,364.833 259.167,362.667 259.5,360.5C 260.235,371.203 261.235,381.87 262.5,392.5 Z"/></g>
<g><path style="opacity:1" fill="#2a3039" d="M 374.5,331.5 C 374.5,332.167 374.167,332.5 373.5,332.5C 371.436,332.687 369.436,333.187 367.5,334C 358.341,344.825 348.841,355.325 339,365.5C 330.447,378.162 322.447,391.162 315,404.5C 311.173,409.327 307.006,413.827 302.5,418C 300.846,418.608 299.179,419.108 297.5,419.5C 296.291,416.692 294.957,414.025 293.5,411.5C 293.5,411.167 293.5,410.833 293.5,410.5C 293.328,409.508 293.662,408.842 294.5,408.5C 294.369,409.239 294.536,409.906 295,410.5C 298.317,407.87 300.65,404.537 302,400.5C 328.785,372.712 355.285,344.545 381.5,316C 382.167,315.333 382.833,315.333 383.5,316C 379.2,321.301 374.534,326.301 369.5,331C 371.134,331.494 372.801,331.66 374.5,331.5 Z"/></g>
<g><path style="opacity:1" fill="#a7a296" d="M 137.5,365.5 C 137.833,365.5 138.167,365.5 138.5,365.5C 138.5,379.833 138.5,394.167 138.5,408.5C 137.024,401.39 136.357,394.057 136.5,386.5C 136.667,379.486 137,372.486 137.5,365.5 Z"/></g>
<g><path style="opacity:1" fill="#a1967d" d="M 143.5,386.5 C 142.179,389.598 141.512,393.098 141.5,397C 142.068,406.844 142.735,416.678 143.5,426.5C 140.122,410.02 139.788,393.354 142.5,376.5C 143.017,372.972 143.684,372.805 144.5,376C 143.714,379.458 143.38,382.958 143.5,386.5 Z"/></g>
<g><path style="opacity:1" fill="#90816b" d="M 174.5,321.5 C 173.933,335.839 173.266,350.172 172.5,364.5C 171.017,362.906 169.517,361.24 168,359.5C 164.774,379.656 166.608,399.322 173.5,418.5C 173.518,420.373 173.018,420.706 172,419.5C 164.326,398.87 162.492,377.87 166.5,356.5C 166.393,358.379 166.893,358.712 168,357.5C 169.199,345.182 171.365,333.182 174.5,321.5 Z"/></g>
<g><path style="opacity:1" fill="#f7f7f7" d="M 149.5,443.5 C 149.672,442.508 149.338,441.842 148.5,441.5C 146.463,426.182 144.963,410.849 144,395.5C 148.091,405.238 152.591,414.738 157.5,424C 155.466,431.268 153.133,438.435 150.5,445.5C 149.702,445.043 149.369,444.376 149.5,443.5 Z"/></g>
<g><path style="opacity:1" fill="#292e35" d="M 215.5,240.5 C 217.435,241.15 219.435,241.483 221.5,241.5C 221.833,242.167 222.167,242.833 222.5,243.5C 220.3,245.262 219.133,247.596 219,250.5C 217.787,260.463 217.287,270.463 217.5,280.5C 218.091,281.151 218.757,281.818 219.5,282.5C 217.413,285.673 215.579,289.006 214,292.5C 213.163,294.007 211.996,294.507 210.5,294C 208.044,291.592 206.211,288.759 205,285.5C 203.333,280.167 201.667,274.833 200,269.5C 199.667,269.833 199.333,270.167 199,270.5C 196.962,279.199 193.795,287.365 189.5,295C 189.667,295.833 189.833,296.667 190,297.5C 194.098,301.526 197.598,306.026 200.5,311C 197.43,316.076 193.597,320.576 189,324.5C 193.361,353.577 204.361,379.91 222,403.5C 223.018,404.706 223.518,404.373 223.5,402.5C 221.723,391.796 220.056,381.129 218.5,370.5C 219.158,369.602 219.824,368.602 220.5,367.5C 221.203,371.87 222.036,376.204 223,380.5C 226.5,376.833 230,373.167 233.5,369.5C 234.182,370.243 234.849,370.909 235.5,371.5C 235.5,371.833 235.5,372.167 235.5,372.5C 231.046,374.424 227.213,377.424 224,381.5C 223.607,388.52 223.941,395.52 225,402.5C 232.599,424.266 241.099,445.599 250.5,466.5C 250.631,467.376 250.298,468.043 249.5,468.5C 245.112,467.153 240.779,465.653 236.5,464C 216.785,449.622 198.952,433.122 183,414.5C 182.162,410.156 180.329,406.49 177.5,403.5C 177.5,403.167 177.5,402.833 177.5,402.5C 177.791,401.351 178.624,400.684 180,400.5C 182.5,401 185,401.5 187.5,402C 193.672,403.869 199.672,406.202 205.5,409C 209.091,409.789 212.591,409.622 216,408.5C 216.579,406.351 217.079,404.185 217.5,402C 210.966,391.103 204.799,379.937 199,368.5C 194.003,356.51 190.003,344.176 187,331.5C 186.333,329.167 186.333,326.833 187,324.5C 191.597,320.576 195.43,316.076 198.5,311C 196.439,306.932 193.605,303.432 190,300.5C 188.692,298.866 187.858,297.032 187.5,295C 191.537,285.567 195.204,275.901 198.5,266C 196.254,260.046 195.087,253.879 195,247.5C 194.005,246.934 193.172,246.267 192.5,245.5C 193.959,245.433 195.292,245.766 196.5,246.5C 202.086,246.194 207.086,244.527 211.5,241.5C 212.708,240.766 214.041,240.433 215.5,240.5 Z"/></g>
<g><path style="opacity:1" fill="#4f4940" d="M 143.5,386.5 C 147.217,400.006 153.217,412.339 161.5,423.5C 160.131,424.968 158.964,426.635 158,428.5C 156.245,435.686 154.412,442.852 152.5,450C 152.826,452.484 153.826,454.651 155.5,456.5C 156.997,453.209 158.497,449.876 160,446.5C 159.126,451.461 158.459,456.461 158,461.5C 160.639,465.639 163.472,469.639 166.5,473.5C 166.333,473.833 166.167,474.167 166,474.5C 163.055,470.933 159.889,467.6 156.5,464.5C 154.725,472.573 153.725,480.573 153.5,488.5C 153.5,489.167 153.5,489.833 153.5,490.5C 152.508,490.672 151.842,490.338 151.5,489.5C 151.843,480.434 152.843,471.434 154.5,462.5C 154.75,458.756 153.083,456.422 149.5,455.5C 149.5,454.833 149.5,454.167 149.5,453.5C 150.357,449.872 150.357,446.539 149.5,443.5C 149.369,444.376 149.702,445.043 150.5,445.5C 153.133,438.435 155.466,431.268 157.5,424C 152.591,414.738 148.091,405.238 144,395.5C 144.963,410.849 146.463,426.182 148.5,441.5C 146.3,437.589 144.634,432.922 143.5,427.5C 143.5,427.167 143.5,426.833 143.5,426.5C 142.735,416.678 142.068,406.844 141.5,397C 141.512,393.098 142.179,389.598 143.5,386.5 Z"/></g>
<g><path style="opacity:1" fill="#38404d" d="M 373.5,332.5 C 369.258,348.04 365.258,363.707 361.5,379.5C 360.883,379.611 360.383,379.944 360,380.5C 356.815,393.262 353.315,405.929 349.5,418.5C 351.889,433.774 352.055,449.107 350,464.5C 349.667,465.5 349.333,466.5 349,467.5C 347.705,466.159 347.205,464.826 347.5,463.5C 347.167,465.5 346.833,467.5 346.5,469.5C 347.098,473.838 347.265,478.172 347,482.5C 347.239,477.946 345.406,475.613 341.5,475.5C 342.803,473.411 342.303,471.744 340,470.5C 338.559,471.26 337.059,471.926 335.5,472.5C 332.317,471.756 329.317,471.756 326.5,472.5C 325.193,471.184 323.693,470.184 322,469.5C 321.333,470.833 320.667,472.167 320,473.5C 318.513,472.747 318.346,471.914 319.5,471C 318.584,470.626 317.75,470.126 317,469.5C 316.915,471.085 316.749,472.418 316.5,473.5C 315.815,470.636 314.149,469.136 311.5,469C 314.345,473.807 313.678,474.807 309.5,472C 310.351,469.546 309.351,468.546 306.5,469C 307.821,470.545 307.488,471.711 305.5,472.5C 304.719,471.271 304.219,469.938 304,468.5C 301.809,471.482 299.476,471.815 297,469.5C 295.392,471.1 293.559,472.433 291.5,473.5C 291.167,472.833 290.833,472.167 290.5,471.5C 287.917,473.24 285.584,474.574 283.5,475.5C 282.808,474.975 282.308,474.308 282,473.5C 278.755,476.512 276.088,476.179 274,472.5C 273.667,473.167 273.333,473.833 273,474.5C 271.392,472.9 269.559,471.567 267.5,470.5C 267.264,471.247 266.93,472.08 266.5,473C 263.305,473.158 261.138,471.658 260,468.5C 258.806,469.43 257.473,470.097 256,470.5C 253.85,469.483 252.017,468.15 250.5,466.5C 241.099,445.599 232.599,424.266 225,402.5C 223.941,395.52 223.607,388.52 224,381.5C 227.213,377.424 231.046,374.424 235.5,372.5C 236.609,372.443 237.609,372.11 238.5,371.5C 238.369,372.239 238.536,372.906 239,373.5C 239.615,371.884 240.615,370.551 242,369.5C 242.483,370.448 242.649,371.448 242.5,372.5C 243.978,372.238 245.311,372.571 246.5,373.5C 246.64,375.256 246.14,376.922 245,378.5C 244.781,377.062 244.281,375.729 243.5,374.5C 242.167,376.5 242.167,378.5 243.5,380.5C 244.396,379.494 245.062,379.494 245.5,380.5C 244.007,387.237 244.341,393.903 246.5,400.5C 244.808,404.23 245.475,407.73 248.5,411C 247.833,411.333 247.167,411.667 246.5,412C 247.952,413.958 248.285,415.958 247.5,418C 249.604,419.658 250.937,421.824 251.5,424.5C 253.594,434.348 256.094,444.014 259,453.5C 260.255,454.211 261.421,455.044 262.5,456C 261.23,458.626 261.896,460.793 264.5,462.5C 267.748,463.645 271.081,464.479 274.5,465C 276.976,467.571 279.976,469.071 283.5,469.5C 283.33,468.178 283.663,467.011 284.5,466C 282.065,465.925 281.398,465.092 282.5,463.5C 282.5,463.167 282.5,462.833 282.5,462.5C 282.611,461.883 282.944,461.383 283.5,461C 282.283,459.352 281.45,457.519 281,455.5C 280.667,455.833 280.333,456.167 280,456.5C 278.129,451.919 275.629,447.752 272.5,444C 272.833,443.667 273.167,443.333 273.5,443C 270.257,440.046 269.257,436.546 270.5,432.5C 276.436,433.962 280.269,437.295 282,442.5C 282.414,442.043 282.914,441.709 283.5,441.5C 284.624,442.914 285.624,444.414 286.5,446C 290.518,446.919 294.185,448.586 297.5,451C 299.134,451.494 300.801,451.66 302.5,451.5C 303.708,452.234 305.041,452.567 306.5,452.5C 307.612,452.514 307.779,451.514 307,449.5C 301.93,440.122 298.763,430.122 297.5,419.5C 299.179,419.108 300.846,418.608 302.5,418C 307.006,413.827 311.173,409.327 315,404.5C 322.447,391.162 330.447,378.162 339,365.5C 348.841,355.325 358.341,344.825 367.5,334C 369.436,333.187 371.436,332.687 373.5,332.5 Z"/></g>
<g><path style="opacity:1" fill="#746955" d="M 261.5,392.5 C 261.833,392.5 262.167,392.5 262.5,392.5C 263.536,400.643 265.203,408.643 267.5,416.5C 266.26,413.976 265.093,411.309 264,408.5C 263.501,412.486 263.334,416.486 263.5,420.5C 262.012,411.374 261.345,402.041 261.5,392.5 Z"/></g>
<g><path style="opacity:1" fill="#86837a" d="M 254.5,373.5 C 253.731,385.15 253.398,396.817 253.5,408.5C 252.834,404.012 252.501,399.346 252.5,394.5C 252.333,387.27 252.999,380.27 254.5,373.5 Z"/></g>
<g><path style="opacity:0.999" fill="#c6b89b" d="M 391.5,400.5 C 393.695,405.085 395.695,409.751 397.5,414.5C 403.513,430.246 406.18,446.579 405.5,463.5C 402.106,466.221 398.439,468.554 394.5,470.5C 396.376,447.474 395.043,424.64 390.5,402C 390.57,401.235 390.903,400.735 391.5,400.5 Z"/></g>
<g><path style="opacity:1" fill="#836f60" d="M 366.5,367.5 C 364.432,379.231 361.932,390.898 359,402.5C 354.424,412.72 353.258,423.386 355.5,434.5C 356.579,440.959 356.079,447.293 354,453.5C 353.688,462.845 353.188,472.178 352.5,481.5C 352.607,484.567 353.107,487.567 354,490.5C 354.383,491.056 354.883,491.389 355.5,491.5C 354.791,492.404 353.791,492.737 352.5,492.5C 350.011,485.606 349.844,478.606 352,471.5C 352.333,452.167 352.667,432.833 353,413.5C 356.282,402.247 359.116,390.914 361.5,379.5C 363.469,375.619 365.136,371.619 366.5,367.5 Z"/></g>
<g><path style="opacity:1" fill="#604835" d="M 392.5,463.5 C 391.503,463.53 390.836,463.03 390.5,462C 388.563,456.021 386.563,450.187 384.5,444.5C 381.897,435.272 378.897,426.105 375.5,417C 375.833,416.5 376.167,416 376.5,415.5C 377.427,417.113 378.261,418.779 379,420.5C 383.515,434.854 388.015,449.188 392.5,463.5 Z"/></g>
<g><path style="opacity:1" fill="#706a5a" d="M 398.5,413.5 C 405.253,429.091 407.919,445.425 406.5,462.5C 406.5,463.167 406.167,463.5 405.5,463.5C 406.18,446.579 403.513,430.246 397.5,414.5C 398.167,414.5 398.5,414.167 398.5,413.5 Z"/></g>
<g><path style="opacity:1" fill="#9c988b" d="M 138.5,411.5 C 139.973,416.632 141.14,421.966 142,427.5C 142.807,431.449 143.307,431.449 143.5,427.5C 144.634,432.922 146.3,437.589 148.5,441.5C 149.338,441.842 149.672,442.508 149.5,443.5C 150.357,446.539 150.357,449.872 149.5,453.5C 143.45,440.241 139.783,426.241 138.5,411.5 Z"/></g>
<g><path style="opacity:0.991" fill="#8c6e59" d="M 355.5,434.5 C 357.765,434.441 358.098,435.274 356.5,437C 357.992,442.254 358.992,447.588 359.5,453C 359.131,456.053 360.131,458.887 362.5,461.5C 361.515,463.098 361.349,464.765 362,466.5C 362.308,465.692 362.808,465.025 363.5,464.5C 366.897,466.401 370.397,468.067 374,469.5C 375.338,468.494 376.671,467.494 378,466.5C 381.008,467.177 384.175,467.177 387.5,466.5C 388.728,468.044 388.894,466.377 388,461.5C 386.647,460.315 385.48,458.981 384.5,457.5C 385.441,457.511 386.108,457.011 386.5,456C 385.414,453.796 384.414,451.629 383.5,449.5C 384.309,447.929 384.643,446.262 384.5,444.5C 386.563,450.187 388.563,456.021 390.5,462C 390.836,463.03 391.503,463.53 392.5,463.5C 393.833,465.167 393.833,466.833 392.5,468.5C 392.762,467.022 392.429,465.689 391.5,464.5C 390.192,467.706 389.525,471.04 389.5,474.5C 378.729,481.219 367.396,486.886 355.5,491.5C 354.883,491.389 354.383,491.056 354,490.5C 353.107,487.567 352.607,484.567 352.5,481.5C 353.188,472.178 353.688,462.845 354,453.5C 356.079,447.293 356.579,440.959 355.5,434.5 Z"/></g>
<g><path style="opacity:1" fill="#896d59" d="M 161.5,423.5 C 165.522,427.854 169.522,432.187 173.5,436.5C 172.366,438.966 172.199,441.633 173,444.5C 174.518,453.213 176.351,461.88 178.5,470.5C 177.635,473.972 176.468,477.305 175,480.5C 174.476,486.85 174.642,493.184 175.5,499.5C 168.683,497.01 162.016,494.343 155.5,491.5C 155.068,490.29 154.401,489.29 153.5,488.5C 153.725,480.573 154.725,472.573 156.5,464.5C 159.889,467.6 163.055,470.933 166,474.5C 166.167,474.167 166.333,473.833 166.5,473.5C 163.472,469.639 160.639,465.639 158,461.5C 158.459,456.461 159.126,451.461 160,446.5C 158.497,449.876 156.997,453.209 155.5,456.5C 153.826,454.651 152.826,452.484 152.5,450C 154.412,442.852 156.245,435.686 158,428.5C 158.964,426.635 160.131,424.968 161.5,423.5 Z"/></g>
<g><path style="opacity:0.994" fill="#353d48" d="M 361.5,379.5 C 359.116,390.914 356.282,402.247 353,413.5C 352.667,432.833 352.333,452.167 352,471.5C 349.844,478.606 350.011,485.606 352.5,492.5C 328.485,502.754 303.485,509.087 277.5,511.5C 262.833,511.5 248.167,511.5 233.5,511.5C 214.434,509.42 195.768,505.42 177.5,499.5C 177.46,489.047 178.293,478.38 180,467.5C 180.813,472.774 181.313,472.774 181.5,467.5C 181.562,461.142 179.729,455.475 176,450.5C 175.281,446.855 174.781,443.188 174.5,439.5C 175.5,439.5 176.5,439.5 177.5,439.5C 182.346,442.423 187.346,445.09 192.5,447.5C 192.833,447.167 193.167,446.833 193.5,446.5C 185.582,433.186 180.249,418.853 177.5,403.5C 180.329,406.49 182.162,410.156 183,414.5C 198.952,433.122 216.785,449.622 236.5,464C 240.779,465.653 245.112,467.153 249.5,468.5C 250.298,468.043 250.631,467.376 250.5,466.5C 252.017,468.15 253.85,469.483 256,470.5C 257.473,470.097 258.806,469.43 260,468.5C 261.138,471.658 263.305,473.158 266.5,473C 266.93,472.08 267.264,471.247 267.5,470.5C 269.559,471.567 271.392,472.9 273,474.5C 273.333,473.833 273.667,473.167 274,472.5C 276.088,476.179 278.755,476.512 282,473.5C 282.308,474.308 282.808,474.975 283.5,475.5C 285.584,474.574 287.917,473.24 290.5,471.5C 290.833,472.167 291.167,472.833 291.5,473.5C 293.559,472.433 295.392,471.1 297,469.5C 299.476,471.815 301.809,471.482 304,468.5C 304.219,469.938 304.719,471.271 305.5,472.5C 307.488,471.711 307.821,470.545 306.5,469C 309.351,468.546 310.351,469.546 309.5,472C 313.678,474.807 314.345,473.807 311.5,469C 314.149,469.136 315.815,470.636 316.5,473.5C 316.749,472.418 316.915,471.085 317,469.5C 317.75,470.126 318.584,470.626 319.5,471C 318.346,471.914 318.513,472.747 320,473.5C 320.667,472.167 321.333,470.833 322,469.5C 323.693,470.184 325.193,471.184 326.5,472.5C 329.317,471.756 332.317,471.756 335.5,472.5C 337.059,471.926 338.559,471.26 340,470.5C 342.303,471.744 342.803,473.411 341.5,475.5C 345.406,475.613 347.239,477.946 347,482.5C 347.265,478.172 347.098,473.838 346.5,469.5C 346.833,467.5 347.167,465.5 347.5,463.5C 347.205,464.826 347.705,466.159 349,467.5C 349.333,466.5 349.667,465.5 350,464.5C 352.055,449.107 351.889,433.774 349.5,418.5C 353.315,405.929 356.815,393.262 360,380.5C 360.383,379.944 360.883,379.611 361.5,379.5 Z"/></g>
<g><path style="opacity:1" fill="#494a4b" d="M 267.5,416.5 C 274.167,433.167 285.833,444.833 302.5,451.5C 300.801,451.66 299.134,451.494 297.5,451C 294.185,448.586 290.518,446.919 286.5,446C 285.624,444.414 284.624,442.914 283.5,441.5C 282.914,441.709 282.414,442.043 282,442.5C 280.269,437.295 276.436,433.962 270.5,432.5C 269.257,436.546 270.257,440.046 273.5,443C 273.167,443.333 272.833,443.667 272.5,444C 275.629,447.752 278.129,451.919 280,456.5C 280.333,456.167 280.667,455.833 281,455.5C 281.45,457.519 282.283,459.352 283.5,461C 282.944,461.383 282.611,461.883 282.5,462.5C 271.562,450.728 265.229,436.728 263.5,420.5C 263.334,416.486 263.501,412.486 264,408.5C 265.093,411.309 266.26,413.976 267.5,416.5 Z"/></g>
<g><path style="opacity:1" fill="#504b40" d="M 293.5,411.5 C 294.957,414.025 296.291,416.692 297.5,419.5C 298.763,430.122 301.93,440.122 307,449.5C 307.779,451.514 307.612,452.514 306.5,452.5C 300.171,439.536 295.838,425.869 293.5,411.5 Z"/></g>
<g><path style="opacity:1" fill="#665744" d="M 221.5,414.5 C 224.766,414.433 226.266,416.099 226,419.5C 226.667,422.167 226.667,424.833 226,427.5C 222.733,429.988 220.733,428.988 220,424.5C 219.037,420.851 219.537,417.518 221.5,414.5 Z"/></g>
<g><path style="opacity:0.8" fill="#eceaea" d="M 392.5,468.5 C 392.5,469.833 392.5,471.167 392.5,472.5C 391.5,473.167 390.5,473.833 389.5,474.5C 389.525,471.04 390.192,467.706 391.5,464.5C 392.429,465.689 392.762,467.022 392.5,468.5 Z"/></g>
<g><path style="opacity:1" fill="#403b3b" d="M 173.5,436.5 C 175.23,437.026 176.564,438.026 177.5,439.5C 176.5,439.5 175.5,439.5 174.5,439.5C 174.781,443.188 175.281,446.855 176,450.5C 179.729,455.475 181.562,461.142 181.5,467.5C 181.313,472.774 180.813,472.774 180,467.5C 178.293,478.38 177.46,489.047 177.5,499.5C 176.833,499.5 176.167,499.5 175.5,499.5C 174.642,493.184 174.476,486.85 175,480.5C 176.468,477.305 177.635,473.972 178.5,470.5C 176.351,461.88 174.518,453.213 173,444.5C 172.199,441.633 172.366,438.966 173.5,436.5 Z"/></g>
<g><path style="opacity:1" fill="#857367" d="M 149.5,455.5 C 153.083,456.422 154.75,458.756 154.5,462.5C 152.843,471.434 151.843,480.434 151.5,489.5C 150.167,489.167 148.833,488.833 147.5,488.5C 147.982,477.484 148.649,466.484 149.5,455.5 Z"/></g>
<g><path style="opacity:0.567" fill="#f3f2f2" d="M 153.5,488.5 C 154.401,489.29 155.068,490.29 155.5,491.5C 154.508,491.672 153.842,491.338 153.5,490.5C 153.5,489.833 153.5,489.167 153.5,488.5 Z"/></g>
<g><path style="opacity:1" fill="#937c44" d="M 234.5,491.5 C 236.534,495.876 237.034,500.543 236,505.5C 234.51,506.728 233.01,506.728 231.5,505.5C 229.651,501.36 229.151,497.026 230,492.5C 231.27,490.422 232.77,490.088 234.5,491.5 Z"/></g>
<g><path style="opacity:1" fill="#423c2d" d="M 234.5,491.5 C 236.017,491.511 237.184,492.177 238,493.5C 238.667,497.833 238.667,502.167 238,506.5C 235.36,508.1 233.193,507.766 231.5,505.5C 233.01,506.728 234.51,506.728 236,505.5C 237.034,500.543 236.534,495.876 234.5,491.5 Z"/></g>
</svg>
