<svg xmlns="http://www.w3.org/2000/svg" fill="none" viewBox="0 0 246000 246000"><g clip-path="url(#a)"><g filter="url(#b)"><path d="M0 115000C0 51487 51487 0 115000 0h12000c65722 0 119000 53278 119000 119000v8000c0 65722-53278 119000-119000 119000h-4000C55069 246000 0 190930 0 123000v-8000Z" fill="url(#c)"/></g><g filter="url(#d)"><path d="M110877 108563c-650-8191-4683-15522-11373-20672-4337-3343-9975-5674-15600-6458-3015-420-6536-420-9372 0-3742 557-7457 1857-10473 3680-5112 3080-8627 7275-10280 12275-616 1843-892 3294-996 5170-512 9092 5900 16898 15143 18445 2663 447 5450 350 7803-275 2186-570 4337-1685 5893-3040 2283-1994 3777-5047 3646-7475-70-1238-374-2262-1162-3913-948-1973-2040-3170-3646-3982-1370-694-2213-873-3922-818-1252 40-1812 131-2822 468-2166 715-3604 1980-4185 3686-161 474-182 646-182 1465 0 790 20 1004 159 1410 200 605 484 1113 927 1670l346 434-300-48c-780-110-1820-317-2212-447-595-193-1093-537-1800-1230-1500-1487-2150-3268-2047-5640 118-2566 1300-5240 3217-7235 1972-2056 4974-3597 8142-4180 1563-290 4088-366 5735-173 8093 942 14596 6100 16885 13396 1163 3714 1114 7874-138 11828-2476 7813-9103 13850-18020 16410-4178 1195-8813 1540-13490 996a36214 36214 0 01-11449-3322c-3417-1650-6046-3466-8605-5955-3880-3775-6538-8184-7983-13238-2615-9167-580-19448 5478-27749 2117-2895 4905-5694 7873-7894 5478-4058 12258-6857 19493-8053 2587-427 4420-592 7230-640 4627-82 7373 213 12866 1390 1542 330 2995 164 4303-489 1694-846 2780-2352 2960-4092 229-2255-1252-4415-3597-5247-1273-454-4994-1183-7886-1547-2317-289-4054-413-6572-460-8680-180-17342 1470-25145 4800-1210 515-4019 1883-5119 2502-7286 4058-13055 9298-17365 15776-3355 5040-5583 10467-6634 16195-394 2160-588 4078-643 6430-173 7634 1910 15088 6046 21663 1680 2668 3430 4834 5866 7262 2165 2166 3860 3562 6295 5200 9802 6600 22233 9400 34000 7646 10106-1499 19210-6409 25186-13575 4933-5914 7651-13266 7596-20528a39610 39610 0 00-70-1822Z" fill="#221725"/></g><g filter="url(#e)"><path d="M129226 115665c4659 6768 11817 11100 20185 12217 5427 725 11476-75 16738-2208 2822-1144 5871-2905 8118-4686 2962-2354 5529-5337 7230-8423 2887-5224 3833-10614 2765-15770-390-1904-875-3300-1723-4977-4103-8130-13560-11683-22336-8402-2530 945-4896 2422-6620 4140-1608 1587-2914 3628-3585 5580-980 2868-747 6259 580 8296 680 1037 1456 1772 2964 2807 1807 1236 3352 1725 5148 1626 1533-84 2354-350 3806-1253 1063-661 1504-1019 2210-1816 1518-1702 2130-3517 1782-5285-94-493-162-653-570-1361-396-685-521-860-844-1142-476-424-976-722-1638-984l-516-202 281-107c732-295 1734-636 2141-720 612-130 1215-82 2173 167 2043 536 3497 1753 4593 3860 1180 2280 1494 5188 832 7874-680 2766-2510 5600-4960 7692-1210 1031-3360 2360-4881 3016-7480 3230-15691 2015-21322-3160-2863-2634-4902-6260-5794-10312-1762-8003 958-16546 7400-23220 3020-3125 6863-5740 11185-7608a36225 36225 0 01 11575-2848c3785-279 6969-21 10430 855 5249 1330 9754 3819 13533 7473 6848 6632 10227 16552 9130 26770-386 3566-1400 7384-2870 10774-2717 6253-7188 12066-12856 16720-2028 1663-3533 2723-5941 4170-3966 2384-6493 3501-11837 5230-1501 484-2677 1354-3482 2573-1045 1580-1233 3428-520 5024 932 2068 3293 3198 5740 2746 1330-244 4917-1473 7603-2603 2152-909 3717-1670 5922-2887 7608-4186 14283-9946 19376-16730 790-1052 2539-3640 3182-4727 4280-7156 6656-14579 7150-22344 384-6043-400-11856-2353-17342-740-2067-1530-3826-2658-5890-3667-6698-9198-12112-16067-15738-2790-1470-5390-2470-8712-3356-2958-793-5124-1155-8051-1355-11790-816-23954 2976-33268 10378-8003 6351-13432 15155-15025 24350-1314 7587 7 15313 3686 21575 309 520 748 1212 971 1543Z" fill="#221725"/></g><g filter="url(#f)"><path d="M164000 190500a41500 41500 0 00-83000 0h83000Z" fill="url(#g)"/></g></g><defs><filter id="b" width="278000" height="326000" x="-11000" y="-24000" color-interpolation-filters="sRGB" filterUnits="userSpaceOnUse"><feFlood flood-opacity="0" result="BackgroundImageFix"/><feBlend in="SourceGraphic" in2="BackgroundImageFix" mode="normal" result="shape"/><feColorMatrix in="SourceAlpha" result="hardAlpha" type="matrix" values="0 0 0 0 0 0 0 0 0 0 0 0 0 0 0 0 0 0 127 0"/><feMorphology in="SourceAlpha" operator="erode" radius="8" result="effect1_innerShadow_397_3180"/><feOffset dx="21" dy="73"/><feGaussianBlur stdDeviation="24"/><feComposite in2="hardAlpha" k2="-1" k3="1" operator="arithmetic"/><feColorMatrix type="matrix" values="0 0 0 0 0.682806 0 0 0 0 0.0652778 0 0 0 0 0.783333 0 0 0 0.14 0"/><feBlend in2="shape" mode="normal" result="effect1_innerShadow_397_3180"/><feColorMatrix in="SourceAlpha" result="hardAlpha" type="matrix" values="0 0 0 0 0 0 0 0 0 0 0 0 0 0 0 0 0 0 127 0"/><feOffset dy="-24"/><feGaussianBlur stdDeviation="15.5"/><feComposite in2="hardAlpha" k2="-1" k3="1" operator="arithmetic"/><feColorMatrix type="matrix" values="0 0 0 0 0.943639 0 0 0 0 0.223611 0 0 0 0 0.958333 0 0 0 0.44 0"/><feBlend in2="effect1_innerShadow_397_3180" mode="normal" result="effect2_innerShadow_397_3180"/><feColorMatrix in="SourceAlpha" result="hardAlpha" type="matrix" values="0 0 0 0 0 0 0 0 0 0 0 0 0 0 0 0 0 0 127 0"/><feOffset dx="-11" dy="30"/><feGaussianBlur stdDeviation="15.5"/><feComposite in2="hardAlpha" k2="-1" k3="1" operator="arithmetic"/><feColorMatrix type="matrix" values="0 0 0 0 1 0 0 0 0 0.766722 0 0 0 0 0.693056 0 0 0 0.68 0"/><feBlend in2="effect2_innerShadow_397_3180" mode="normal" result="effect3_innerShadow_397_3180"/></filter><filter id="d" width="85000" height="88000" x="25947" y="57000" color-interpolation-filters="sRGB" filterUnits="userSpaceOnUse"><feFlood flood-opacity="0" result="BackgroundImageFix"/><feBlend in="SourceGraphic" in2="BackgroundImageFix" mode="normal" result="shape"/><feColorMatrix in="SourceAlpha" result="hardAlpha" type="matrix" values="0 0 0 0 0 0 0 0 0 0 0 0 0 0 0 0 0 0 127 0"/><feMorphology in="SourceAlpha" operator="dilate" radius="26.45" result="effect1_innerShadow_397_3180"/><feOffset dx="9.2" dy="-7"/><feGaussianBlur stdDeviation="10.35"/><feComposite in2="hardAlpha" k2="-1" k3="1" operator="arithmetic"/><feColorMatrix type="matrix" values="0 0 0 0 0.462111 0 0 0 0 0.203767 0 0 0 0 0.504167 0 0 0 0.35 0"/><feBlend in2="shape" mode="normal" result="effect1_innerShadow_397_3180"/></filter><filter id="e" width="86724" height="93179" x="124073" y="57710" color-interpolation-filters="sRGB" filterUnits="userSpaceOnUse"><feFlood flood-opacity="0" result="BackgroundImageFix"/><feBlend in="SourceGraphic" in2="BackgroundImageFix" mode="normal" result="shape"/><feColorMatrix in="SourceAlpha" result="hardAlpha" type="matrix" values="0 0 0 0 0 0 0 0 0 0 0 0 0 0 0 0 0 0 127 0"/><feMorphology in="SourceAlpha" operator="dilate" radius="26.45" result="effect1_innerShadow_397_3180"/><feOffset dx="9.2" dy="-7"/><feGaussianBlur stdDeviation="10.35"/><feComposite in2="hardAlpha" k2="-1" k3="1" operator="arithmetic"/><feColorMatrix type="matrix" values="0 0 0 0 0.462111 0 0 0 0 0.203767 0 0 0 0 0.504167 0 0 0 0.35 0"/><feBlend in2="shape" mode="normal" result="effect1_innerShadow_397_3180"/></filter><filter id="f" width="149667" height="108167" x="47667" y="121667" color-interpolation-filters="sRGB" filterUnits="userSpaceOnUse"><feFlood flood-opacity="0" result="BackgroundImageFix"/><feColorMatrix in="SourceAlpha" result="hardAlpha" type="matrix" values="0 0 0 0 0 0 0 0 0 0 0 0 0 0 0 0 0 0 127 0"/><feOffset dy="6"/><feGaussianBlur stdDeviation="16.667"/><feColorMatrix type="matrix" values="0 0 0 0 0.0298758 0 0 0 0 0.0216858 0 0 0 0 0.0308333 0 0 0 0.24 0"/><feBlend in2="BackgroundImageFix" mode="normal" result="effect1_dropShadow_397_3180"/><feBlend in="SourceGraphic" in2="effect1_dropShadow_397_3180" mode="normal" result="shape"/><feColorMatrix in="SourceAlpha" result="hardAlpha" type="matrix" values="0 0 0 0 0 0 0 0 0 0 0 0 0 0 0 0 0 0 127 0"/><feOffset dy="-34"/><feGaussianBlur stdDeviation="2.593"/><feComposite in2="hardAlpha" k2="-1" k3="1" operator="arithmetic"/><feColorMatrix type="matrix" values="0 0 0 0 0.17328 0 0 0 0 0.125777 0 0 0 0 0.178833 0 0 0 1 0"/><feBlend in2="shape" mode="normal" result="effect2_innerShadow_397_3180"/><feColorMatrix in="SourceAlpha" result="hardAlpha" type="matrix" values="0 0 0 0 0 0 0 0 0 0 0 0 0 0 0 0 0 0 127 0"/><feOffset dy="-40"/><feGaussianBlur stdDeviation="1.296"/><feComposite in2="hardAlpha" k2="-1" k3="1" operator="arithmetic"/><feColorMatrix type="matrix" values="0 0 0 0 0.119503 0 0 0 0 0.086743 0 0 0 0 0.123333 0 0 0 1 0"/><feBlend in2="effect2_innerShadow_397_3180" mode="normal" result="effect3_innerShadow_397_3180"/><feColorMatrix in="SourceAlpha" result="hardAlpha" type="matrix" values="0 0 0 0 0 0 0 0 0 0 0 0 0 0 0 0 0 0 127 0"/><feMorphology in="SourceAlpha" operator="dilate" radius="26.45" result="effect4_innerShadow_397_3180"/><feOffset dx="9.2" dy="-13"/><feGaussianBlur stdDeviation="10.35"/><feComposite in2="hardAlpha" k2="-1" k3="1" operator="arithmetic"/><feColorMatrix type="matrix" values="0 0 0 0 0.462111 0 0 0 0 0.203767 0 0 0 0 0.504167 0 0 0 0.35 0"/><feBlend in2="effect3_innerShadow_397_3180" mode="normal" result="effect4_innerShadow_397_3180"/><feColorMatrix in="SourceAlpha" result="hardAlpha" type="matrix" values="0 0 0 0 0 0 0 0 0 0 0 0 0 0 0 0 0 0 127 0"/><feMorphology in="SourceAlpha" operator="dilate" radius="26.45" result="effect5_innerShadow_397_3180"/><feOffset dx="9.2" dy="-31"/><feGaussianBlur stdDeviation="10.35"/><feComposite in2="hardAlpha" k2="-1" k3="1" operator="arithmetic"/><feColorMatrix type="matrix" values="0 0 0 0 0.462111 0 0 0 0 0.203767 0 0 0 0 0.504167 0 0 0 0.35 0"/><feBlend in2="effect4_innerShadow_397_3180" mode="normal" result="effect5_innerShadow_397_3180"/></filter><radialGradient id="c" cx="0" cy="0" r="1000" gradientTransform="rotate(86.517 45998 65918) scale(230.426)" gradientUnits="userSpaceOnUse"><stop offset=".576" stop-color="#FFBB0C"/><stop offset="1" stop-color="#FFC907"/></radialGradient><linearGradient id="g" x1="122500" x2="122500" y1="149000" y2="232000" gradientUnits="userSpaceOnUse"><stop stop-color="#201721"/><stop offset="1" stop-color="#2B1F2C"/></linearGradient><clipPath id="a"><path d="M0 0h246000v246000H0" fill="#fff"/></clipPath></defs></svg>
